<svg xmlns="http://www.w3.org/2000/svg" width="256" height="31" viewBox="0 0 256 31">
    <g fill="none" fill-rule="evenodd">
        <g>
            <g>
                <g>
                    <g>
                        <g>
                            <g>
                                <g fill-rule="nonzero">
                                    <path fill="#DA4C39" d="M4.44 17.136l1.512-3.504h7.488l1.512 3.504h4.368L11.4.216H7.896L0 17.136h4.44zm7.584-6.816H7.368l2.328-5.424 2.328 5.424zm15.192 6.816c1.888 0 3.508-.336 4.86-1.008 1.352-.672 2.384-1.644 3.096-2.916.712-1.272 1.068-2.788 1.068-4.548 0-1.744-.36-3.252-1.08-4.524-.72-1.272-1.756-2.244-3.108-2.916C30.7.552 29.088.216 27.216.216h-6.888v16.92h6.888zm-.312-3.552h-2.16V3.768h2.16c1.664 0 2.904.404 3.72 1.212.816.808 1.224 2.036 1.224 3.684 0 1.648-.408 2.88-1.224 3.696-.816.816-2.056 1.224-3.72 1.224zm19.368 3.768c2.432 0 4.292-.628 5.58-1.884 1.288-1.256 1.932-3.076 1.932-5.46V.216H49.44v9.96c0 1.216-.272 2.152-.816 2.808-.544.656-1.328.984-2.352.984-1.024 0-1.808-.328-2.352-.984-.544-.656-.816-1.592-.816-2.808V.216h-4.32v9.792c0 2.4.636 4.224 1.908 5.472 1.272 1.248 3.132 1.872 5.58 1.872z" transform="translate(-100 -17) translate(100 17) translate(60.472 4.864)"/>
                                    <path fill="#FFF" d="M64.728 17.352c1.136 0 2.208-.176 3.216-.528 1.008-.352 1.856-.848 2.544-1.488l-1.032-2.256c-.768.608-1.528 1.052-2.28 1.332-.752.28-1.552.42-2.4.42-1.632 0-2.892-.528-3.78-1.584-.888-1.056-1.332-2.584-1.332-4.584 0-1.984.444-3.504 1.332-4.56.888-1.056 2.148-1.584 3.78-1.584.848 0 1.648.14 2.4.42.752.28 1.512.724 2.28 1.332l1.032-2.256C69.8 1.376 68.952.88 67.944.528 66.936.176 65.864 0 64.728 0c-1.664 0-3.116.356-4.356 1.068-1.24.712-2.192 1.72-2.856 3.024-.664 1.304-.996 2.828-.996 4.572 0 1.744.332 3.272.996 4.584.664 1.312 1.616 2.324 2.856 3.036 1.24.712 2.692 1.068 4.356 1.068zm11.64-.216V9.792h8.664v7.344h3.024V.216h-3.024v7.08h-8.664V.216H73.32v16.92h3.048zm26.664 0v-2.448h-8.304V9.744h7.824V7.32h-7.824V2.664h8.304V.216H91.704v16.92h11.328zm10.488.216c1.136 0 2.208-.176 3.216-.528 1.008-.352 1.856-.848 2.544-1.488l-1.032-2.256c-.768.608-1.528 1.052-2.28 1.332-.752.28-1.552.42-2.4.42-1.632 0-2.892-.528-3.78-1.584-.888-1.056-1.332-2.584-1.332-4.584 0-1.984.444-3.504 1.332-4.56.888-1.056 2.148-1.584 3.78-1.584.848 0 1.648.14 2.4.42.752.28 1.512.724 2.28 1.332l1.032-2.256c-.688-.64-1.536-1.136-2.544-1.488C115.728.176 114.656 0 113.52 0c-1.664 0-3.116.356-4.356 1.068-1.24.712-2.192 1.72-2.856 3.024-.664 1.304-.996 2.828-.996 4.572 0 1.744.332 3.272.996 4.584.664 1.312 1.616 2.324 2.856 3.036 1.24.712 2.692 1.068 4.356 1.068zm11.688-.216V9.264l7.848 7.872h3.768l-8.568-8.784L136.44.216h-3.696l-7.536 7.56V.216h-3.096v16.92h3.096zm15.576 0v-3.312h-3.36v3.312h3.36zm10.8.216c1.136 0 2.208-.176 3.216-.528 1.008-.352 1.856-.848 2.544-1.488l-1.032-2.256c-.768.608-1.528 1.052-2.28 1.332-.752.28-1.552.42-2.4.42-1.632 0-2.892-.528-3.78-1.584-.888-1.056-1.332-2.584-1.332-4.584 0-1.984.444-3.504 1.332-4.56.888-1.056 2.148-1.584 3.78-1.584.848 0 1.648.14 2.4.42.752.28 1.512.724 2.28 1.332l1.032-2.256c-.688-.64-1.536-1.136-2.544-1.488C153.792.176 152.72 0 151.584 0c-1.664 0-3.116.356-4.356 1.068-1.24.712-2.192 1.72-2.856 3.024-.664 1.304-.996 2.828-.996 4.572 0 1.744.332 3.272.996 4.584.664 1.312 1.616 2.324 2.856 3.036 1.24.712 2.692 1.068 4.356 1.068zm16.128 0c1.632 0 3.052-.352 4.26-1.056 1.208-.704 2.14-1.712 2.796-3.024.656-1.312.984-2.848.984-4.608 0-1.76-.324-3.292-.972-4.596-.648-1.304-1.576-2.308-2.784-3.012C170.788.352 169.36 0 167.712 0c-1.648 0-3.08.352-4.296 1.056-1.216.704-2.148 1.708-2.796 3.012-.648 1.304-.972 2.836-.972 4.596 0 1.76.328 3.296.984 4.608.656 1.312 1.588 2.32 2.796 3.024 1.208.704 2.636 1.056 4.284 1.056zm0-2.472c-1.568 0-2.788-.536-3.66-1.608-.872-1.072-1.308-2.608-1.308-4.608 0-2 .436-3.532 1.308-4.596.872-1.064 2.092-1.596 3.66-1.596 1.552 0 2.764.532 3.636 1.596.872 1.064 1.308 2.596 1.308 4.596s-.436 3.536-1.308 4.608c-.872 1.072-2.084 1.608-3.636 1.608zm13.944 2.256l-.024-11.064 4.488 8.328h2.064l4.464-8.448v11.184h2.736V.216h-2.424l-5.784 11.064L181.368.216h-2.448v16.92h2.736z" transform="translate(-100 -17) translate(100 17) translate(60.472 4.864)"/>
                                </g>
                                <g>
                                    <path fill="#FFF" d="M0 21.19L4.293 25.472 21.533 8.825 27.741 14.852 32.36 10.761 21.533 0 11.818 9.753 11.818 5.859 6.647 5.859 6.647 13.92z" transform="translate(-100 -17) translate(100 17) translate(.749 .672)"/>
                                    <path fill="#DA4C39" d="M21.826 14.828L17.296 19.32 27.922 30.015 49.868 8.336 45.511 3.906 27.922 20.987z" transform="translate(-100 -17) translate(100 17) translate(.749 .672)"/>
                                </g>
                            </g>
                        </g>
                    </g>
                </g>
            </g>
        </g>
    </g>
</svg>
