<svg xmlns="http://www.w3.org/2000/svg" width="650" height="392" viewBox="0 0 650 392">
    <g fill="none" fill-rule="evenodd">
        <g fill-rule="nonzero">
            <g>
                <g>
                    <g>
                        <g>
                            <path stroke="#979797" d="M424.072 369.404L649.764 241.946 249.488 16.616 0 122.741z" transform="translate(-690 -918) translate(0 700) translate(690 204.28) matrix(-1 0 0 1 650 35.72)"/>
                            <g>
                                <g>
                                    <path fill="#FFF" stroke="#DA4C39" d="M92.741 157.216L174.123 110.543 174.123 58.321 93.161 104.986zM49.036 52.636L4.762 53.925 4.536 103.21 92.741 154.122 93.161 104.986z" transform="translate(-690 -918) translate(0 700) translate(690 204.28) matrix(-1 0 0 1 650 35.72) rotate(3 48.461 2501.017)"/>
                                    <path fill="#F3D3CE" stroke="#DA4C39" d="M97.595 107.231L178.556 60.571 130.007 2.975 49.045 49.635z" transform="translate(-690 -918) translate(0 700) translate(690 204.28) matrix(-1 0 0 1 650 35.72) rotate(3 48.461 2501.017)"/>
                                    <path fill="#F3D3CE" stroke="#DA4C39" d="M40.683 48.188L131.483 6.381 84.933 4.721 1.455 45.445z" transform="translate(-690 -918) translate(0 700) translate(690 204.28) matrix(-1 0 0 1 650 35.72) rotate(3 48.461 2501.017) rotate(176 66.47 26.454)"/>
                                    <path fill="#FFF" stroke="#DA4C39" d="M49.045 49.635L0.307 51.052 0.299 54.057 4.762 53.925 49.036 52.636 93.161 104.986 97.59 110.236 97.595 107.231z" transform="translate(-690 -918) translate(0 700) translate(690 204.28) matrix(-1 0 0 1 650 35.72) rotate(3 48.461 2501.017)"/>
                                    <path stroke="#DA4C39" d="M97.59 110.236L178.548 63.572 178.556 60.571 97.595 107.231z" transform="translate(-690 -918) translate(0 700) translate(690 204.28) matrix(-1 0 0 1 650 35.72) rotate(3 48.461 2501.017)"/>
                                    <path fill="#DA4C39" d="M69.595 101.357L69.59 102.117 23.144 75.289 23.144 74.525z" transform="translate(-690 -918) translate(0 700) translate(690 204.28) matrix(-1 0 0 1 650 35.72) rotate(3 48.461 2501.017)"/>
                                    <path fill="#DA4C39" d="M32.186 70.653L32.092 104.35 31.456 103.978 31.55 70.286zM61.944 87.809L61.85 121.505 61.184 121.121 61.282 87.425z" transform="translate(-690 -918) translate(0 700) translate(690 204.28) matrix(-1 0 0 1 650 35.72) rotate(3 48.461 2501.017)"/>
                                    <path fill="#DA4C39" d="M68.87 125.547l.093-32.932-45.789-26.448-.094 32.936 45.79 26.444zm-46.357-60.52l47.111 27.208-.098 34.456-47.112-27.208.099-34.456z" transform="translate(-690 -918) translate(0 700) translate(690 204.28) matrix(-1 0 0 1 650 35.72) rotate(3 48.461 2501.017)"/>
                                    <path stroke="#DA4C39" d="M128.057 57.963L128.116 67.926 135.716 63.619 135.656 53.652z" transform="translate(-690 -918) translate(0 700) translate(690 204.28) matrix(-1 0 0 1 650 35.72) rotate(3 48.461 2501.017)"/>
                                    <path d="M128.116 67.926l7.6-4.307-.06-9.967-7.6 4.31.06 9.964zm8.03-4.064l-8.456 4.802-.064-10.949 8.457-4.802.064 10.949z" transform="translate(-690 -918) translate(0 700) translate(690 204.28) matrix(-1 0 0 1 650 35.72) rotate(3 48.461 2501.017)"/>
                                    <path stroke="#DA4C39" d="M92.741 149.416L92.741 157.258 4.536 106.296 4.536 99.061z" transform="translate(-690 -918) translate(0 700) translate(690 204.28) matrix(-1 0 0 1 650 35.72) rotate(3 48.461 2501.017)"/>
                                    <path fill="#DA4C39" d="M149.187 97.127L149.285 123.063 149.848 122.739 149.746 96.807z" transform="translate(-690 -918) translate(0 700) translate(690 204.28) matrix(-1 0 0 1 650 35.72) rotate(3 48.461 2501.017)"/>
                                    <path fill="#DA4C39" d="M137.098 103.803L137.103 104.448 159.27 91.646 159.27 91.002z" transform="translate(-690 -918) translate(0 700) translate(690 204.28) matrix(-1 0 0 1 650 35.72) rotate(3 48.461 2501.017)"/>
                                    <path fill="#DA4C39" d="M137.073 96.722L137.196 129.995 137.755 129.671 137.632 97.02 159.24 84.539 159.363 117.194 159.922 116.869 159.799 83.596zM127.024 109.946L127.122 135.882 127.681 135.557 127.583 109.626z" transform="translate(-690 -918) translate(0 700) translate(690 204.28) matrix(-1 0 0 1 650 35.72) rotate(3 48.461 2501.017)"/>
                                    <path fill="#DA4C39" d="M114.94 116.622L114.94 117.266 137.107 104.465 137.103 103.82z" transform="translate(-690 -918) translate(0 700) translate(690 204.28) matrix(-1 0 0 1 650 35.72) rotate(3 48.461 2501.017)"/>
                                    <path fill="#DA4C39" d="M114.906 109.54L115.034 142.814 115.593 142.489 115.469 109.835 137.077 97.358 137.201 130.012 137.76 129.688 137.636 96.41z" transform="translate(-690 -918) translate(0 700) translate(690 204.28) matrix(-1 0 0 1 650 35.72) rotate(3 48.461 2501.017)"/>
                                    <path stroke="#DA4C39" d="M92.741 149.416L92.888 157.216 115.26 144.157 115.26 136.774z" transform="translate(-690 -918) translate(0 700) translate(690 204.28) matrix(-1 0 0 1 650 35.72) rotate(3 48.461 2501.017)"/>
                                </g>
                            </g>
                            <path fill="#FFF" d="M413.604 196.823L415.394 195.417 439.51 209.2 439.51 244.52 437.719 245.513z" transform="translate(-690 -918) translate(0 700) translate(690 204.28) matrix(-1 0 0 1 650 35.72)"/>
                            <path fill="#DBDBDB" d="M413.604 231.73L413.604 196.408 437.719 210.193 437.719 245.513z" transform="translate(-690 -918) translate(0 700) translate(690 204.28) matrix(-1 0 0 1 650 35.72)"/>
                            <path fill="#566472" d="M434.931 211.114L416.392 200.519 416.392 230.807 434.931 241.402z" transform="translate(-690 -918) translate(0 700) translate(690 204.28) matrix(-1 0 0 1 650 35.72)"/>
                            <path fill="#DBDBDB" d="M425.798 204.902L425.798 237.029 424.405 236.232 424.405 204.107z" transform="translate(-690 -918) translate(0 700) translate(690 204.28) matrix(-1 0 0 1 650 35.72)"/>
                            <path fill="#FFF" stroke="#979797" d="M495.953 178.346L394.755 236.184 495.953 294.021 597.15 236.184z" transform="translate(-690 -918) translate(0 700) translate(690 204.28) matrix(-1 0 0 1 650 35.72)"/>
                            <path fill="#FFF" stroke="#979797" d="M597.15 245.986L495.953 303.822 495.953 294.021 510.769 285.552 597.15 236.184zM495.953 303.822L394.755 245.986 394.755 236.184 495.953 294.021z" transform="translate(-690 -918) translate(0 700) translate(690 204.28) matrix(-1 0 0 1 650 35.72)"/>
                            <path fill="#FFF" stroke="#979797" d="M352.444 206.729L302.779 234.69 403.978 292.527 453.642 264.568zM448.54 267.485L403.978 292.527 403.978 302.328 448.54 277.286z" transform="translate(-690 -918) translate(0 700) translate(690 204.28) matrix(-1 0 0 1 650 35.72)"/>
                            <path fill="#FFF" stroke="#979797" d="M403.978 302.328L302.779 244.491 302.779 234.69 403.978 292.527zM495.953 288.874L495.953 224.881 403.768 172.193 403.768 236.186z" transform="translate(-690 -918) translate(0 700) translate(690 204.28) matrix(-1 0 0 1 650 35.72)"/>
                            <path fill="#FFF" stroke="#979797" d="M404.547 287.057L404.547 223.065 355.611 128.581 309.583 169.389 309.583 233.383zM448.622 197.874L404.547 223.065 404.547 287.057 448.622 261.867zM542.045 132.004L588.137 172.193 588.137 188.55 588.094 236.869 565.452 249.151 495.953 288.874 495.953 224.881z" transform="translate(-690 -918) translate(0 700) translate(690 204.28) matrix(-1 0 0 1 650 35.72)"/>
                            <path fill="#FFF" stroke="#979797" d="M540.697 125.249L491.743 223.898 399.556 171.213 448.513 72.562z" transform="translate(-690 -918) translate(0 700) translate(690 204.28) matrix(-1 0 0 1 650 35.72)"/>
                            <path fill="#FFF" stroke="#979797" d="M592.349 170.286L592.349 172.851 588.137 175.258 588.137 172.193 542.045 132.004 495.953 224.881 495.953 227.945 491.743 230.353 491.743 223.898 540.697 125.249zM491.743 230.353L491.743 223.898 399.556 171.213 399.556 177.665zM454.231 255.425L454.231 220.103 478.347 233.886 478.347 269.208z" transform="translate(-690 -918) translate(0 700) translate(690 204.28) matrix(-1 0 0 1 650 35.72)"/>
                            <path fill="#FFF" stroke="#979797" d="M475.559 234.809L457.019 224.212 457.019 254.5 475.559 265.097z" transform="translate(-690 -918) translate(0 700) translate(690 204.28) matrix(-1 0 0 1 650 35.72)"/>
                            <path fill="#FFF" stroke="#979797" d="M466.426 228.595L466.426 260.722 465.033 259.927 465.033 227.8zM539.683 255.425L539.683 220.103 515.568 233.886 515.568 269.208z" transform="translate(-690 -918) translate(0 700) translate(690 204.28) matrix(-1 0 0 1 650 35.72)"/>
                            <path fill="#FFF" stroke="#979797" d="M518.356 234.809L536.895 224.212 536.895 254.5 518.356 265.097z" transform="translate(-690 -918) translate(0 700) translate(690 204.28) matrix(-1 0 0 1 650 35.72)"/>
                            <path fill="#FFF" stroke="#979797" d="M527.489 228.595L527.489 260.722 528.881 259.927 528.881 227.8zM557.19 190.081L557.19 155.349 543.116 163.239 543.116 197.971z" transform="translate(-690 -918) translate(0 700) translate(690 204.28) matrix(-1 0 0 1 650 35.72)"/>
                            <path fill="#FFF" stroke="#979797" d="M545.904 164.16L554.402 159.461 554.402 189.158 545.904 193.859zM571.056 251.098L571.056 203.979 547.582 216.855 547.788 264.371z" transform="translate(-690 -918) translate(0 700) translate(690 204.28) matrix(-1 0 0 1 650 35.72)"/>
                            <path fill="#FFF" stroke="#979797" d="M568.392 209.361L550.285 218.72 550.285 262.963 568.45 252.699zM435.611 260.463L435.611 225.732 421.537 233.621 421.537 268.353z" transform="translate(-690 -918) translate(0 700) translate(690 204.28) matrix(-1 0 0 1 650 35.72)"/>
                            <path fill="#FFF" stroke="#979797" d="M424.325 234.544L432.823 229.843 432.823 259.54 424.325 264.241zM591.871 269.843L571.131 258.223 560.691 279.028 568.202 283.274z" transform="translate(-690 -918) translate(0 700) translate(690 204.28) matrix(-1 0 0 1 650 35.72)"/>
                            <path fill="#FFF" stroke="#979797" d="M547.464 271.268l20.738 12.006v3.487l-20.738-12.007v-3.486zm0-7.022l7.511 4.246v3.485l-7.045-3.983 13.524 7.82v3.487l-13.99-8.091v-6.964zM568.202 286.761L591.871 273.327 591.871 269.843 568.202 283.274z" transform="translate(-690 -918) translate(0 700) translate(690 204.28) matrix(-1 0 0 1 650 35.72)"/>
                            <path fill="#FFF" stroke="#979797" d="M585.122 262.383L571.131 254.679 553.943 271.568 561.454 275.815z" transform="translate(-690 -918) translate(0 700) translate(690 204.28) matrix(-1 0 0 1 650 35.72)"/>
                            <path fill="#FFF" stroke="#979797" d="M561.454 279.301L585.122 265.87 585.122 262.383 561.454 275.815zM578.644 255.061L571.131 251.199 547.464 264.246 554.975 268.492z" transform="translate(-690 -918) translate(0 700) translate(690 204.28) matrix(-1 0 0 1 650 35.72)"/>
                            <path fill="#FFF" stroke="#979797" d="M554.975 271.977L578.644 258.545 578.644 255.061 554.975 268.492zM448.513 72.562L356.841 124.955 405.798 223.606 448.513 199.192zM305.19 169.992L305.19 172.559 309.401 174.964 309.401 171.901 355.494 131.71 401.586 224.587 401.586 227.652 405.796 230.059 405.796 223.606 356.841 124.955z" transform="translate(-690 -918) translate(0 700) translate(690 204.28) matrix(-1 0 0 1 650 35.72)"/>
                            <path fill="#FFF" stroke="#979797" d="M448.513 199.192L405.798 223.606 405.798 230.059 448.513 205.644zM361.321 252.716L361.321 217.394 385.437 231.177 385.437 266.499z" transform="translate(-690 -918) translate(0 700) translate(690 204.28) matrix(-1 0 0 1 650 35.72)"/>
                            <path fill="#FFF" stroke="#979797" d="M382.649 232.1L364.109 221.505 364.109 251.793 382.649 262.387z" transform="translate(-690 -918) translate(0 700) translate(690 204.28) matrix(-1 0 0 1 650 35.72)"/>
                            <path fill="#FFF" stroke="#979797" d="M373.516 225.888L373.516 258.013 372.123 257.217 372.123 225.092zM339.788 185.592L339.788 150.27 363.903 164.053 363.903 199.375z" transform="translate(-690 -918) translate(0 700) translate(690 204.28) matrix(-1 0 0 1 650 35.72)"/>
                            <path fill="#FFF" stroke="#979797" d="M361.115 164.976L342.576 154.381 342.576 184.669 361.115 195.263z" transform="translate(-690 -918) translate(0 700) translate(690 204.28) matrix(-1 0 0 1 650 35.72)"/>
                            <path fill="#FFF" stroke="#979797" d="M351.982 158.764L351.982 190.891 350.589 190.093 350.589 157.968zM320.585 229.884L320.585 194.564 344.7 208.347 344.7 243.669z" transform="translate(-690 -918) translate(0 700) translate(690 204.28) matrix(-1 0 0 1 650 35.72)"/>
                            <path fill="#FFF" stroke="#979797" d="M341.912 209.27L323.373 198.674 323.373 228.961 341.912 239.558z" transform="translate(-690 -918) translate(0 700) translate(690 204.28) matrix(-1 0 0 1 650 35.72)"/>
                            <path fill="#FFF" stroke="#979797" d="M332.779 203.056L332.779 235.183 331.386 234.388 331.386 202.261z" transform="translate(-690 -918) translate(0 700) translate(690 204.28) matrix(-1 0 0 1 650 35.72)"/>
                        </g>
                    </g>
                    <g>
                        <path fill="#DA4C39" d="M7.75 45.86c.26-.01.51-.07.75-.18.24-.109.456-.25.648-.421.193-.172.36-.365.5-.578.141-.214.263-.456.368-.727.03-.24.033-.471.007-.695-.026-.224-.06-.44-.101-.649-.021-.083-.034-.156-.04-.218-.004-.063-.017-.13-.038-.204.291-.135.554-.307.789-.515.234-.209.409-.422.523-.64l.156-.298-.28-.11c-.022-.01-.048-.028-.079-.054s-.057-.05-.078-.07c-.052-.052-.117-.107-.195-.164-.078-.057-.2-.091-.367-.102-.042-.03-.079-.062-.11-.093-.031-.032-.057-.063-.078-.094l-.063-.188-.203.016c-.166.01-.312.042-.437.094-.021-.01-.083-.016-.188-.016-.104-.25-.187-.513-.25-.789-.062-.276-.12-.565-.171-.867-.042-.209-.086-.42-.133-.633-.047-.214-.097-.424-.149-.633-.01-.26-.031-.497-.062-.71-.031-.214-.068-.43-.11-.65-.02-.093-.039-.187-.054-.28l-.055-.313-.078-.14c-.115-.115-.276-.206-.485-.274-.208-.068-.421-.128-.64-.18-.125-.041-.245-.078-.36-.11-.114-.03-.197-.062-.25-.093l-.25-.156-.187.266c-.27.416-.54.773-.805 1.07-.265.297-.57.523-.914.68L4 36.095c-.073 0-.133.007-.18.023-.047.016-.09.034-.132.055l-.172-.016-.11.156c-.166.198-.304.401-.414.61-.11.208-.21.416-.304.625-.084.177-.17.349-.258.515-.089.167-.206.355-.352.563-.02.062-.031.117-.031.164s.005.091.015.133c-.093.208-.19.411-.289.61-.099.197-.195.395-.289.593-.302.615-.59 1.213-.867 1.797-.276.583-.544 1.193-.804 1.828l-.016.328-.203.156.234.235c.042.052.073.146.094.28.02.074.036.144.047.212.01.068.036.143.078.226l.094.125c.104.053.195.112.273.18.078.068.18.164.305.29l.203.015c.073 0 .138-.005.195-.016.057-.01.154-.031.29-.062l.234-.032.046-.203c.042-.041.115-.083.22-.125.072-.03.148-.067.226-.11.078-.04.143-.103.195-.187l.063-.203c0-.156.023-.312.07-.468l.148-.485c.042-.104.081-.208.118-.312.036-.104.065-.214.086-.328.02-.021.046-.042.078-.063.03-.02.057-.047.078-.078l.156-.14-.063-.173c-.01-.02-.007-.052.008-.093.016-.042.034-.073.055-.094l.203-.031.063-.203c.02-.073.044-.149.07-.227.026-.078.06-.159.102-.242.01.125.052.245.124.36-.041.155-.026.286.047.39.073.104.136.187.188.25l.07.07c.026.026.04.05.04.07l.046.172.172.016c.198.031.385.047.563.047.27 0 .52-.024.75-.07.229-.047.463-.102.703-.165.166-.041.333-.08.5-.117.166-.036.38-.028.64.024.021.333-.02.565-.125.695-.104.13-.312.237-.625.32l-.515.14.312.36c.042.042.078.081.11.117.03.037.067.07.109.102.114.104.19.188.226.25.037.063.04.135.008.219l-.062.234.203.094c.052.02.12.062.203.125.052.042.112.083.18.125.067.042.174.078.32.11zm-3.594-5.03c.136-.23.276-.449.422-.657l.016-.016c.156-.291.354-.599.593-.922.24-.323.49-.625.75-.906l.079-.156c.114.406.221.81.32 1.21.099.402.19.795.273 1.18-.364.073-.703.125-1.015.157-.313.03-.651.057-1.016.078-.073.01-.143.015-.21.015-.069 0-.139.006-.212.016zm8.61 5.062c.698-.323 1.414-.628 2.148-.915.734-.286 1.44-.601 2.117-.945s1.302-.74 1.875-1.187c.573-.448 1.047-1 1.422-1.657v-.218c0-.052.005-.1.016-.14l.031-.126c.01-.042.026-.094.047-.156-.042-.667-.193-1.245-.453-1.735s-.586-.924-.977-1.304c-.39-.38-.823-.73-1.297-1.047-.474-.318-.935-.638-1.383-.961-.291-.073-.588-.17-.89-.29-.302-.119-.61-.244-.922-.374l-.953-.399c-.323-.135-.651-.255-.985-.359-.083.146-.14.307-.171.484-.032.178-.089.36-.172.547.062.24.127.45.195.633.068.182.102.367.102.555h-.25c-.084 0-.115.047-.094.14.02.042.02.092 0 .149-.021.057-.037.143-.047.258.146.53.25 1.11.313 1.734.062.625.052 1.234-.032 1.828-.062.031-.125.094-.187.188-.031.333-.094.656-.188.968-.094.313-.198.636-.312.97.01.166-.018.296-.086.39-.068.094-.123.208-.164.344.031.302.06.593.086.875.026.28.078.539.156.773.078.234.198.437.36.61.16.171.393.294.695.367zm1.421-3.516c.094-.51.167-.984.22-1.422.051-.437.075-.865.07-1.281-.006-.417-.04-.834-.102-1.25-.063-.417-.156-.86-.281-1.328.041-.042.11-.063.203-.063.114.104.281.185.5.242.219.058.463.16.734.305.177.01.331.047.461.11.13.062.253.127.367.195.115.067.235.135.36.203s.27.112.437.133c.073.156.17.294.29.414.12.12.244.234.374.343.13.11.256.22.375.329.12.109.222.242.305.398-.115.26-.26.484-.438.672-.177.187-.375.354-.593.5-.219.146-.459.276-.719.39-.26.115-.52.225-.781.329-.052.052-.112.101-.18.148-.068.047-.122.112-.164.195-.156.01-.294.037-.414.079-.12.041-.234.088-.344.14-.11.052-.216.1-.32.14-.104.042-.224.069-.36.079zm11.047 3.234c.532-.218 1.003-.424 1.414-.617.412-.193.782-.398 1.11-.617.328-.219.625-.469.89-.75.266-.281.519-.63.758-1.047l.188-.219.25-.062.093-.485.375.141c.032-.031.066-.083.102-.156.037-.073.065-.125.086-.156.042-.084.086-.167.133-.25.047-.084.101-.157.164-.22.114-.25.263-.543.445-.882.182-.339.367-.67.555-.992l.031-.172c.042-.302.086-.591.133-.867.047-.276.122-.57.227-.883-.021-.24-.06-.443-.118-.61-.057-.166-.122-.338-.195-.515-.073-.188-.14-.383-.203-.586-.063-.203-.104-.445-.125-.727-.136-.145-.284-.291-.445-.437-.162-.146-.336-.281-.524-.406-.27.114-.448.291-.531.53-.021.043-.034.087-.04.134-.004.047.009.096.04.148l.047.203c-.021.209-.13.36-.328.453-.021.344-.068.714-.141 1.11-.073.396-.174.791-.305 1.187-.13.396-.294.779-.492 1.149s-.422.7-.672.992c-.26.292-.51.544-.75.758-.24.213-.49.403-.75.57-.26.167-.541.31-.843.43-.303.12-.641.226-1.016.32l-.344.031-.094-.25c-.073-.198-.125-.442-.156-.734s-.039-.596-.023-.914c.015-.318.057-.633.125-.945.067-.313.164-.589.289-.829-.01-.208-.058-.43-.14-.664-.084-.234-.173-.46-.267-.68-.052-.114-.098-.223-.14-.327-.042-.105-.078-.214-.11-.329-.187-.072-.328-.174-.421-.304-.094-.13-.167-.253-.22-.367-.072-.146-.137-.25-.194-.313-.058-.062-.18-.088-.368-.078-.052.083-.122.18-.21.289-.09.11-.222.185-.399.227-.042.114-.076.234-.102.359-.026.125-.049.26-.07.406-.02.167-.05.341-.086.524-.036.182-.091.367-.164.554.031.032.057.115.078.25l-.031.078c-.188.553-.284 1.19-.29 1.914-.004.724.014 1.514.056 2.368v.297c.03.041.065.078.101.109.037.031.07.062.102.094l.406.468-.313.094c.084.115.154.235.211.36.058.125.112.25.165.375.114.229.223.437.328.625.104.187.26.333.468.437.063 0 .13.02.203.063.073.041.13.109.172.203.177.02.334.036.47.047.135.01.275.015.421.015.146.01.294.018.445.024.151.005.331.023.54.054zm14.063-2.765c.114-.052.325-.107.633-.164.307-.058.742-.118 1.304-.18.271-.031.641-.047 1.11-.047.468 0 .953-.013 1.453-.039.5-.026.979-.073 1.437-.14.459-.068.818-.19 1.078-.368 0-.094.006-.187.016-.281.01-.094.003-.18-.023-.258-.026-.078-.073-.143-.14-.195-.069-.052-.18-.089-.337-.11-.073-.218-.203-.375-.39-.468-.188-.094-.396-.154-.626-.18-.229-.026-.463-.042-.703-.047-.24-.005-.448-.034-.625-.086-.49.021-1.013.042-1.57.063-.557.02-1.096.036-1.617.047-.125.062-.274.106-.445.132-.172.026-.352.045-.54.055-.187.01-.377.023-.57.04-.193.015-.372.043-.539.085.042.052.042.133 0 .242-.042.11-.104.17-.187.18.104.083.166.203.187.36.021.156.01.275-.031.359.073.125.135.244.187.36.052.114.115.215.188.304.073.088.167.164.281.226.115.063.271.1.469.11zm21.828 3.015c.26-.01.51-.07.75-.18.24-.109.456-.25.648-.421.193-.172.36-.365.5-.578.141-.214.263-.456.368-.727.03-.24.033-.471.007-.695-.026-.224-.06-.44-.101-.649-.021-.083-.034-.156-.04-.218-.004-.063-.017-.13-.038-.204.291-.135.554-.307.789-.515.234-.209.409-.422.523-.64l.156-.298-.28-.11c-.022-.01-.048-.028-.079-.054s-.057-.05-.078-.07c-.052-.052-.117-.107-.195-.164-.078-.057-.2-.091-.368-.102-.041-.03-.078-.062-.109-.093-.031-.032-.057-.063-.078-.094l-.063-.188-.203.016c-.166.01-.312.042-.437.094-.021-.01-.083-.016-.188-.016-.104-.25-.187-.513-.25-.789-.062-.276-.12-.565-.172-.867-.041-.209-.085-.42-.132-.633-.047-.214-.097-.424-.149-.633-.01-.26-.031-.497-.062-.71-.032-.214-.068-.43-.11-.65-.02-.093-.039-.187-.054-.28l-.055-.313-.078-.14c-.115-.115-.276-.206-.484-.274-.209-.068-.422-.128-.641-.18-.125-.041-.245-.078-.36-.11-.114-.03-.197-.062-.25-.093l-.25-.156-.187.266c-.27.416-.54.773-.805 1.07-.265.297-.57.523-.914.68l-.281-.047c-.073 0-.133.007-.18.023-.047.016-.09.034-.133.055l-.171-.016-.11.156c-.166.198-.304.401-.414.61-.11.208-.21.416-.304.625-.084.177-.17.349-.258.515-.089.167-.206.355-.352.563-.02.062-.031.117-.031.164s.005.091.016.133c-.094.208-.19.411-.29.61-.099.197-.195.395-.289.593-.302.615-.59 1.213-.867 1.797-.276.583-.544 1.193-.804 1.828l-.016.328-.203.156.234.235c.042.052.073.146.094.28.02.074.036.144.047.212.01.068.036.143.078.226l.094.125c.104.053.195.112.273.18.078.068.18.164.305.29l.203.015c.073 0 .138-.005.195-.016.057-.01.154-.031.29-.062l.234-.032.047-.203c.041-.041.114-.083.218-.125.073-.03.149-.067.227-.11.078-.04.143-.103.195-.187l.063-.203c0-.156.023-.312.07-.468l.148-.485c.042-.104.081-.208.118-.312.036-.104.065-.214.086-.328.02-.021.046-.042.078-.063.03-.02.057-.047.078-.078l.156-.14-.063-.173c-.01-.02-.007-.052.008-.093.016-.042.034-.073.055-.094l.203-.031.063-.203c.02-.073.044-.149.07-.227.026-.078.06-.159.102-.242.01.125.052.245.124.36-.041.155-.026.286.047.39.073.104.136.187.188.25l.07.07c.026.026.04.05.04.07l.046.172.172.016c.198.031.385.047.563.047.27 0 .52-.024.75-.07.229-.047.463-.102.703-.165.166-.041.333-.08.5-.117.166-.036.38-.028.64.024.021.333-.02.565-.125.695-.104.13-.312.237-.625.32l-.515.14.312.36c.042.042.078.081.11.117.03.037.067.07.109.102.114.104.19.188.226.25.037.063.04.135.008.219l-.062.234.203.094c.052.02.12.062.203.125.052.042.112.083.18.125.067.042.174.078.32.11zm-3.594-5.03c.136-.23.276-.449.422-.657l.016-.016c.156-.291.354-.599.593-.922.24-.323.49-.625.75-.906l.079-.156c.114.406.221.81.32 1.21.099.402.19.795.273 1.18-.364.073-.703.125-1.015.157-.313.03-.651.057-1.016.078-.073.01-.143.015-.21.015-.069 0-.139.006-.212.016zm12.282 5.015c.208-.094.434-.13.68-.11.244.021.45.026.616.016.177-.135.355-.268.532-.399.177-.13.338-.273.484-.43.031-.176.02-.325-.031-.445-.052-.12-.12-.229-.203-.328-.084-.099-.175-.192-.274-.28-.099-.09-.185-.186-.258-.29-.78-.01-1.56-.042-2.336-.094-.776-.052-1.507-.182-2.195-.39-.062-.115-.12-.232-.172-.352-.052-.12-.088-.258-.11-.414.053-.083.108-.164.165-.242.057-.078.08-.19.07-.336.167-.156.326-.315.477-.477.15-.161.312-.317.484-.468.172-.151.354-.287.547-.407.193-.12.414-.216.664-.289.281-.312.643-.55 1.086-.71.443-.162.914-.31 1.414-.446.219-.062.422-.187.61-.375.187-.187.317-.39.39-.61.073-.218.068-.429-.016-.632-.083-.203-.28-.352-.593-.445 0-.063.01-.107.031-.133.02-.026.01-.065-.031-.117-.125-.01-.216-.04-.274-.086-.057-.047-.127-.065-.21-.055.01-.02.025-.057.046-.11.021-.052.005-.078-.047-.078-.02.053-.044.076-.07.07-.026-.004-.055-.023-.086-.054-.031-.031-.065-.062-.101-.094-.037-.03-.081-.041-.133-.03-.084.03-.172.059-.266.085-.094.026-.167-.003-.219-.086-.062.104-.148.188-.257.25-.11.063-.224.122-.344.18-.12.057-.237.114-.352.172-.114.057-.213.132-.297.226-.218.052-.411.125-.578.219-.166.094-.328.195-.484.305-.156.109-.315.213-.477.312-.161.1-.351.175-.57.227-.063.083-.133.153-.21.21l-.235.172c-.078.058-.151.12-.22.188-.067.068-.168.133-.304.195-.302.334-.596.67-.883 1.008-.286.339-.507.742-.664 1.211-.01.313 0 .638.032.977.03.338.093.669.187.992.094.323.219.627.375.914.156.286.36.529.61.726.177.042.317.112.421.211.105.1.209.206.313.32.479.167 1.005.308 1.578.423.573.114 1.135.182 1.688.203zm8.218 0c.209-.094.435-.13.68-.11.245.021.45.026.617.016.177-.135.354-.268.531-.399.177-.13.339-.273.485-.43.031-.176.02-.325-.031-.445-.053-.12-.12-.229-.204-.328-.083-.099-.174-.192-.273-.28-.099-.09-.185-.186-.258-.29-.781-.01-1.56-.042-2.336-.094-.776-.052-1.508-.182-2.195-.39-.063-.115-.12-.232-.172-.352-.052-.12-.089-.258-.11-.414.053-.083.107-.164.165-.242.057-.078.08-.19.07-.336.167-.156.326-.315.477-.477.15-.161.312-.317.484-.468.172-.151.354-.287.547-.407.193-.12.414-.216.664-.289.281-.312.643-.55 1.086-.71.443-.162.914-.31 1.414-.446.219-.062.422-.187.61-.375.187-.187.317-.39.39-.61.073-.218.068-.429-.016-.632-.083-.203-.281-.352-.594-.445 0-.063.01-.107.032-.133.02-.026.01-.065-.031-.117-.126-.01-.217-.04-.274-.086-.057-.047-.128-.065-.21-.055.01-.02.025-.057.046-.11.02-.052.005-.078-.047-.078-.02.053-.044.076-.07.07-.026-.004-.055-.023-.086-.054-.031-.031-.065-.062-.102-.094-.036-.03-.08-.041-.132-.03-.084.03-.172.059-.266.085-.094.026-.167-.003-.219-.086-.062.104-.148.188-.258.25-.11.063-.224.122-.343.18-.12.057-.237.114-.352.172-.115.057-.214.132-.297.226-.219.052-.411.125-.578.219-.167.094-.328.195-.484.305-.157.109-.315.213-.477.312-.161.1-.352.175-.57.227-.063.083-.133.153-.211.21l-.235.172c-.078.058-.15.12-.218.188s-.17.133-.305.195c-.302.334-.596.67-.883 1.008-.286.339-.508.742-.664 1.211-.01.313 0 .638.031.977.032.338.094.669.188.992.094.323.219.627.375.914.156.286.36.529.61.726.176.042.317.112.421.211.104.1.208.206.313.32.479.167 1.005.308 1.578.423.573.114 1.135.182 1.687.203zm5.531.078c.344.01.683-.005 1.016-.047.333-.042.62-.089.86-.14.083 0 .156.012.218.038.063.026.14.029.235.008.385-.073.737-.135 1.054-.187.318-.052.607-.125.868-.22.26-.093.492-.23.695-.413.203-.182.383-.445.539-.79-.063.011-.107-.002-.133-.038-.026-.037-.044-.081-.055-.133-.01-.052-.023-.107-.039-.164-.015-.057-.044-.107-.086-.149-.093.01-.171-.01-.234-.062s-.122-.112-.18-.18c-.057-.067-.117-.14-.18-.219-.062-.078-.135-.132-.218-.164-.24.084-.503.144-.79.18-.286.037-.533.112-.741.227-.334-.01-.61-.003-.829.023l-.64.078c-.208.026-.43.045-.664.055-.235.01-.529-.01-.883-.063.104-.28.224-.546.36-.796.135-.25.286-.485.453-.704.124.042.268.06.43.055.16-.005.299.018.413.07.084-.052.2-.067.352-.046.15.02.268.005.351-.047.042.03.076.047.102.047h.117c.25.01.477-.013.68-.07.203-.058.396-.134.578-.227.182-.094.357-.2.523-.32.167-.12.334-.238.5-.352.042-.104.055-.206.04-.305-.016-.099-.045-.19-.087-.273-.104.01-.195-.008-.273-.055-.078-.047-.154-.107-.227-.18-.072-.073-.145-.148-.218-.226-.073-.078-.146-.143-.219-.196-.01-.041-.005-.07.016-.086.02-.015.026-.049.015-.101-.427.01-.862.036-1.304.078-.443.042-.847.047-1.211.016-.032-.063-.045-.144-.04-.243.006-.098-.012-.195-.054-.289.094-.03.187-.06.281-.086.094-.026.172-.07.234-.132.209.02.368.005.477-.047.11-.052.232-.052.367 0 .344-.209.69-.344 1.04-.406.348-.063.69-.123 1.023-.18.333-.057.643-.151.93-.281.286-.13.538-.373.757-.727-.02-.073-.031-.128-.031-.164 0-.036.003-.07.008-.102l.015-.101c.006-.037.003-.091-.007-.164-.198-.084-.378-.185-.54-.305-.16-.12-.294-.268-.398-.445.01.094-.013.122-.07.086-.057-.037-.107-.008-.149.086-.083 0-.171-.047-.265-.14-.438.082-.828.145-1.172.187-.344.041-.675.085-.992.132-.318.047-.64.107-.97.18-.327.073-.7.177-1.116.313-.23.052-.448.099-.656.14-.209.042-.402.094-.579.156-.177.063-.34.144-.492.243-.15.099-.278.226-.383.382.052.178.089.352.11.524.02.172.047.338.078.5.031.161.08.323.148.484.068.162.175.31.32.446-.072.197-.148.377-.226.539-.078.161-.156.32-.234.476-.078.156-.154.318-.227.485-.073.166-.14.343-.203.53-.073-.01-.115.009-.125.055-.01.047-.042.076-.094.086.031.146-.002.282-.101.407-.1.125-.164.265-.196.422-.03.145-.039.307-.023.484s.039.357.07.539c.031.182.063.357.094.523.031.167.052.318.063.454.114.052.184.127.21.226.026.1.081.185.165.258.197.198.453.336.765.414.313.078.64.122.984.133zm7.782.054c.114.006.221-.002.32-.023.099-.02.19-.068.273-.14-.02.062-.01.088.032.078.041-.01.083-.01.125 0 .375-.115.76-.256 1.156-.422.396-.167.768-.368 1.117-.602.35-.234.662-.502.938-.805.276-.302.492-.645.648-1.03.083-.21.12-.415.11-.618-.01-.203-.027-.435-.047-.695-.073-.167-.172-.32-.297-.461-.125-.14-.203-.279-.235-.414-.052-.052-.099-.073-.14-.063-.042.01-.078-.026-.11-.11 0-.093-.018-.2-.054-.32-.037-.12-.091-.231-.164-.335-.073-.105-.167-.193-.282-.266-.114-.073-.25-.11-.406-.11-.031-.104-.088-.18-.172-.226-.083-.047-.18-.086-.289-.117-.11-.031-.213-.063-.312-.094-.1-.031-.18-.083-.243-.156.021-.052.016-.086-.015-.102-.031-.015-.042-.05-.031-.101.177-.021.34-.045.492-.07.15-.027.278-.081.383-.165.125.021.257.01.398-.03.14-.043.281-.084.422-.126.14-.042.276-.062.406-.062s.242.046.336.14c.313-.02.667-.047 1.063-.078.395-.031.786 0 1.171.094.115-.052.222-.112.32-.18.1-.068.201-.143.305-.226.042-.178.032-.32-.03-.43-.063-.11-.147-.211-.25-.305-.011-.094-.042-.185-.094-.273-.053-.089-.112-.18-.18-.274-.068-.093-.133-.187-.195-.28-.063-.095-.11-.194-.141-.298-.573-.166-1.12-.232-1.64-.195-.522.036-1.03.117-1.524.242-.495.125-.98.268-1.453.43-.474.161-.92.33-1.336.508-.188.052-.386.114-.594.187-.208.073-.409.164-.602.273-.192.11-.37.243-.53.399-.162.156-.28.344-.352.562.02.136.02.245 0 .329-.021.083-.052.192-.094.328.073.083.104.169.094.257-.01.089-.026.196-.047.32.052.095.11.18.172.259.062.078.125.158.187.242.083-.021.14-.01.172.031.031.042.057.089.078.14.302.136.617.23.945.282.329.052.67.088 1.024.11.156.03.284.062.383.093.099.031.205.016.32-.047.177.094.39.18.64.258.25.078.475.174.672.29l.172.046c0 .062.024.101.07.117.048.016.066.06.055.133-.02.094-.057.172-.109.234-.052.063-.11.12-.172.172-.062.052-.122.11-.18.172-.057.063-.101.14-.132.234-.25.115-.503.245-.758.391-.255.146-.524.281-.805.406s-.58.222-.898.29c-.318.067-.654.08-1.008.038-.125.063-.2.146-.227.25-.026.105-.034.214-.023.329l.031.335c.01.11-.005.206-.047.29-.01.03-.005.054.016.07.02.015.044.029.07.039.026.01.042.023.047.039.005.016-.023.076-.086.18.042 0 .06.026.055.078-.005.052.018.078.07.078.031.104.076.19.133.258.057.067.122.138.195.21.104-.02.216-.025.336-.015.12.01.237.018.352.023zm7.422 0c.114.006.221-.002.32-.023.099-.02.19-.068.273-.14-.02.062-.01.088.032.078.041-.01.083-.01.125 0 .375-.115.76-.256 1.156-.422.396-.167.768-.368 1.117-.602.349-.234.662-.502.938-.805.276-.302.492-.645.648-1.03.083-.21.12-.415.11-.618-.011-.203-.027-.435-.047-.695-.073-.167-.172-.32-.297-.461-.125-.14-.204-.279-.235-.414-.052-.052-.099-.073-.14-.063-.042.01-.079-.026-.11-.11 0-.093-.018-.2-.054-.32-.037-.12-.092-.231-.165-.335-.072-.105-.166-.193-.28-.266-.115-.073-.25-.11-.407-.11-.031-.104-.089-.18-.172-.226-.083-.047-.18-.086-.289-.117-.11-.031-.213-.063-.312-.094-.1-.031-.18-.083-.243-.156.021-.052.016-.086-.015-.102-.031-.015-.042-.05-.031-.101.177-.021.34-.045.492-.07.15-.027.278-.081.382-.165.126.021.258.01.399-.03.14-.043.281-.084.422-.126.14-.042.276-.062.406-.062s.242.046.336.14c.313-.02.667-.047 1.063-.078.395-.031.786 0 1.171.094.115-.052.222-.112.32-.18.1-.068.201-.143.305-.226.042-.178.032-.32-.03-.43-.063-.11-.147-.211-.25-.305-.011-.094-.043-.185-.095-.273-.052-.089-.112-.18-.18-.274-.067-.093-.132-.187-.195-.28-.062-.095-.109-.194-.14-.298-.573-.166-1.12-.232-1.64-.195-.522.036-1.03.117-1.524.242-.495.125-.98.268-1.453.43-.474.161-.92.33-1.336.508-.188.052-.386.114-.594.187-.208.073-.409.164-.602.273-.192.11-.37.243-.53.399-.162.156-.28.344-.353.562.021.136.021.245 0 .329-.02.083-.052.192-.093.328.073.083.104.169.094.257-.01.089-.027.196-.047.32.052.095.109.18.171.259.063.078.126.158.188.242.083-.021.14-.01.172.031.031.042.057.089.078.14.302.136.617.23.945.282.328.052.67.088 1.024.11.156.03.284.062.383.093.099.031.205.016.32-.047.177.094.39.18.64.258.25.078.474.174.672.29l.172.046c0 .062.024.101.07.117.047.016.066.06.055.133-.02.094-.057.172-.11.234-.051.063-.109.12-.171.172-.063.052-.122.11-.18.172-.057.063-.101.14-.132.234-.25.115-.503.245-.758.391-.256.146-.524.281-.805.406s-.58.222-.898.29c-.318.067-.654.08-1.008.038-.125.063-.2.146-.227.25-.026.105-.034.214-.023.329l.031.335c.01.11-.005.206-.047.29-.01.03-.005.054.016.07.02.015.044.029.07.039.026.01.042.023.047.039.005.016-.023.076-.086.18.042 0 .06.026.055.078-.006.052.018.078.07.078.031.104.076.19.133.258.057.067.122.138.195.21.104-.02.216-.025.336-.015.12.01.237.018.352.023zm9.495-.032l.184-.014c.297-.037.602-.112.914-.227.125.01.271.003.438-.023.167-.026.333-.068.5-.125.167-.058.328-.12.484-.188.156-.068.292-.133.406-.195l.43-.094c.14-.031.268-.083.383-.156.177-.146.37-.271.578-.375.208-.104.386-.25.531-.438.115-.062.214-.159.297-.289.084-.13.151-.276.203-.437.052-.162.089-.328.11-.5.02-.172.02-.331 0-.477-.021-.114-.052-.229-.094-.344-.042-.114-.086-.226-.133-.336-.047-.109-.086-.22-.117-.335-.031-.115-.042-.235-.031-.36-.25-.406-.474-.836-.672-1.289-.198-.453-.422-.883-.672-1.289.042-.042.057-.11.047-.203-.01-.052-.042-.08-.094-.086-.052-.005-.073-.044-.062-.117.104-.052.169-.133.195-.242.026-.11.065-.217.117-.32-.042-.136-.083-.227-.125-.274-.042-.047-.078-.143-.11-.29-.04-.01-.07-.004-.085.016-.016.021-.044.026-.086.016-.021-.094-.06-.167-.117-.219-.058-.052-.118-.101-.18-.148-.063-.047-.12-.1-.172-.156-.052-.058-.083-.138-.094-.243-.114-.114-.247-.182-.398-.203-.151-.02-.29-.062-.414-.125-.136.084-.237.162-.305.235-.068.073-.143.182-.226.328-.115.02-.2.031-.258.031-.057 0-.133.005-.227.016l-.32.398c-.089.11-.227.206-.414.29v.171c-.083.02-.156.055-.219.102-.062.046-.122.096-.18.148-.057.052-.117.099-.18.14-.062.042-.14.074-.234.094-.083.146-.195.258-.336.336-.14.078-.247.196-.32.352-.052.01-.096.036-.133.078-.036.042-.07.086-.101.133-.031.047-.065.083-.102.11-.036.025-.086.028-.148.007-.281.333-.573.675-.875 1.023-.302.35-.57.73-.805 1.141-.234.412-.414.86-.539 1.344-.125.484-.146 1.023-.063 1.617.115.281.264.55.446.805s.396.474.64.656c.245.182.526.315.844.398.318.084.664.1 1.04.047.395.084.741.107 1.038.07l-.184.015zm-.41-2.32c-.255.022-.502.017-.742-.015-.24-.03-.448-.12-.625-.265.01-.25.058-.47.141-.657.083-.187.182-.364.297-.53.114-.167.232-.332.351-.493.12-.161.222-.341.305-.54.052-.02.083-.028.094-.023.01.006.036-.002.078-.023.24-.302.51-.568.813-.797.302-.229.604-.463.906-.703.052.042.112.076.18.102.067.026.132.041.195.046.062.006.12-.01.172-.046.052-.037.088-.097.109-.18.063.062.12.073.172.031.052-.041.088-.083.11-.125.208.323.395.67.562 1.04.166.369.364.715.594 1.038 0 .104.005.18.015.227.01.047.042.112.094.195-.01.146-.05.255-.117.328-.068.073-.123.167-.164.282-.344.177-.672.351-.985.523-.312.172-.687.31-1.125.414-.208 0-.435.023-.68.07-.244.047-.494.081-.75.102zm13.32 2.587c.49.11.897.101 1.22-.024.093-.01.166-.039.218-.086.052-.046.1-.101.141-.164l.125-.187c.042-.063.094-.115.156-.156-.041-.01-.08-.013-.117-.008-.036.005-.06-.008-.07-.04.062-.072.099-.168.11-.288.01-.12.004-.245-.016-.375-.021-.13-.066-.26-.133-.39-.068-.131-.149-.243-.243-.337-.24-.02-.424-.039-.554-.055-.13-.015-.258-.036-.383-.062-.125-.026-.263-.057-.414-.094-.151-.036-.362-.086-.633-.148-.27-.063-.482-.117-.633-.164-.15-.047-.291-.102-.422-.164-.13-.063-.268-.14-.414-.235-.145-.093-.343-.218-.593-.375.01-.052-.003-.078-.04-.078-.036 0-.054-.02-.054-.062.344-.146.729-.282 1.156-.407.427-.125.828-.278 1.203-.46.375-.183.696-.415.961-.696.266-.281.414-.65.445-1.11.01-.072.01-.13 0-.171-.01-.042-.023-.083-.039-.125-.015-.042-.023-.08-.023-.117 0-.037.01-.081.031-.133-.083-.156-.156-.32-.219-.492l-.187-.516c-.063-.172-.133-.333-.21-.484-.08-.151-.18-.284-.306-.399v-.187c-.083-.052-.153-.102-.21-.149-.058-.047-.128-.09-.212-.132-.166-.26-.377-.472-.632-.633-.256-.162-.487-.32-.696-.477-.406.042-.742.172-1.007.39-.266.22-.508.47-.727.75-.219.282-.432.571-.64.868-.209.297-.449.55-.72.758-.03-.073-.117-.133-.257-.18-.14-.047-.268-.06-.383-.039-.104.23-.188.48-.25.75-.063.27-.122.547-.18.828-.057.281-.12.565-.187.852-.068.286-.154.565-.258.836.01.052.016.117.016.195s-.006.156-.016.234c-.01.078-.026.141-.047.188-.02.047-.052.055-.094.023.063.157.079.308.047.453-.031.146-.07.292-.117.438-.047.146-.086.302-.117.469-.031.166-.063.343-.094.53.042.074.078.147.11.22.03.073.072.11.124.11-.02.072-.026.132-.015.179.01.047.023.093.039.14.016.047.029.1.039.157.01.057.005.127-.016.21.115-.02.185.006.211.079.026.073.05.15.07.234.094 0 .165.013.212.04.046.025.085.051.117.077.031.026.067.05.11.07.04.021.109.021.202 0 .063-.041.12-.088.172-.14.052-.052.146-.068.281-.047.177-.23.31-.45.399-.664.088-.214.19-.529.305-.945l.507.453c.14.125.297.242.47.351.17.11.374.22.608.328.235.11.54.237.915.383.75.292 1.37.492 1.859.602zm-3.484-5.54c.042-.228.115-.429.22-.6.103-.173.22-.329.35-.47.131-.14.266-.278.407-.414.14-.135.268-.286.383-.453.198.063.388.193.57.39.182.199.294.46.336.782-.354.146-.729.3-1.125.461-.396.162-.776.263-1.14.305zM125 46.252l.234-.094c.052-.052.089-.094.11-.125l.172-.172c.062-.062.12-.135.171-.218l.032-.157c.01-.02.026-.05.047-.086.02-.036.041-.07.062-.101.052-.084.102-.17.149-.258.046-.089.075-.18.085-.273.386-.49.63-.943.735-1.36.114-.114.198-.216.25-.305.052-.088.104-.21.156-.367.094-.083.172-.177.234-.28.063-.105.12-.214.172-.33.052-.093.105-.184.157-.273.052-.088.114-.164.187-.226l.078-.234c.084-.084.143-.165.18-.243.036-.078.075-.158.117-.242.042-.083.078-.159.11-.226.03-.068.114-.17.25-.305.02-.052.039-.096.054-.133.016-.036.029-.075.04-.117l.077-.078c.032-.031.084-.1.157-.203.073-.146.127-.237.164-.274.036-.036.06-.054.07-.054h.188l.046-.188c.063-.208.203-.375.422-.5l.11-.125c.041-.104.101-.19.18-.258l.257-.226c.115-.094.232-.198.352-.313.12-.114.221-.297.304-.547l-.062-.156c.01-.042.016-.088.016-.14 0-.053-.027-.13-.079-.235l-.14-.094c-.146-.083-.284-.172-.414-.265-.13-.094-.216-.198-.258-.313l-.063-.203-.218.031c-.615.125-1.089.448-1.422.97l-.172.124c-.052.083-.117.162-.195.234-.079.073-.16.151-.243.235l-.328.312.031.157-.921 1.25c-.021.02-.042.036-.063.046-.02.01-.042.026-.062.047-.042.042-.094.078-.157.11.021-.146.016-.282-.015-.407s-.063-.244-.094-.359c-.031-.115-.063-.237-.094-.367s-.047-.268-.047-.414l-.062-.188c-.042-.03-.063-.114-.063-.25 0-.073-.005-.13-.015-.172v-.171l-.203-.172-.11-.22c-.114-.082-.224-.15-.328-.202-.104-.052-.213-.104-.328-.156-.083-.053-.17-.102-.258-.149s-.18-.096-.273-.148l-.266.015c-.135.084-.232.18-.289.29-.057.109-.091.226-.102.35-.01.126-.002.25.024.376.026.125.05.24.07.344.031.125.058.247.078.367.021.12.016.216-.015.289l-.031.156c.01.073.041.146.093.219 0 .125.01.245.031.36.021.114.047.228.079.343.02.104.041.203.062.297.021.094.037.208.047.344.052.187.128.4.227.64s.216.49.351.75c.146.136.271.287.375.453-.052.084-.12.198-.203.344-.083.146-.198.344-.344.594-.177.323-.302.565-.375.726-.073.162-.12.28-.14.352-.115.115-.2.245-.258.39-.057.147-.107.292-.149.438-.02.063-.039.123-.054.18-.016.057-.034.112-.055.164l-.016.156c.167.709.63 1.115 1.391 1.219zm11.813-.36c.697-.322 1.414-.627 2.148-.914.734-.286 1.44-.601 2.117-.945s1.302-.74 1.875-1.187c.573-.448 1.047-1 1.422-1.657v-.218c0-.052.005-.1.016-.14l.03-.126c.011-.042.027-.094.048-.156-.042-.667-.193-1.245-.453-1.735s-.586-.924-.977-1.304c-.39-.38-.823-.73-1.297-1.047-.474-.318-.935-.638-1.383-.961-.291-.073-.588-.17-.89-.29-.302-.119-.61-.244-.922-.374l-.953-.399c-.323-.135-.651-.255-.985-.359-.083.146-.14.307-.172.484-.03.178-.088.36-.171.547.062.24.127.45.195.633.068.182.101.367.101.555h-.25c-.083 0-.114.047-.093.14.02.042.02.092 0 .149-.021.057-.037.143-.047.258.146.53.25 1.11.312 1.734.063.625.052 1.234-.03 1.828-.063.031-.126.094-.188.188-.032.333-.094.656-.188.968-.094.313-.198.636-.312.97.01.166-.019.296-.086.39-.068.094-.123.208-.164.344.03.302.06.593.086.875.026.28.078.539.156.773.078.234.198.437.36.61.16.171.392.294.695.367zm1.421-3.515c.094-.51.167-.984.22-1.422.051-.437.075-.865.07-1.281-.006-.417-.04-.834-.102-1.25-.063-.417-.156-.86-.281-1.328.041-.042.109-.063.203-.063.114.104.281.185.5.242.219.058.463.16.734.305.177.01.33.047.461.11.13.062.253.127.367.195.115.067.235.135.36.203s.27.112.437.133c.073.156.17.294.29.414.119.12.244.234.374.343.13.11.255.22.375.329.12.109.222.242.305.398-.115.26-.26.484-.438.672-.177.187-.375.354-.593.5-.22.146-.459.276-.72.39-.26.115-.52.225-.78.329-.052.052-.112.101-.18.148-.068.047-.122.112-.164.195-.156.01-.294.037-.414.079-.12.041-.235.088-.344.14-.11.052-.216.1-.32.14-.104.042-.224.069-.36.079zm15.266 3.547c.115-.094.255-.14.422-.14.083 0 .182.015.297.046.437-.26.823-.58 1.156-.96.333-.381.635-.798.906-1.25.271-.454.518-.93.742-1.43.224-.5.44-1 .649-1.5.156-.386.32-.771.492-1.157.172-.385.352-.76.54-1.125-.032-.312-.087-.583-.165-.812-.078-.23-.18-.433-.305-.61s-.273-.34-.445-.492c-.172-.15-.372-.3-.601-.445-.209.281-.425.682-.649 1.203-.224.52-.445 1.057-.664 1.61-.146.374-.292.744-.438 1.109-.145.364-.294.7-.445 1.007-.15.308-.307.579-.469.813-.161.234-.33.42-.507.555l-.625.484c-.052-.083-.094-.177-.125-.281-.032-.104-.052-.203-.063-.297-.02-.104-.026-.208-.016-.313 0-.135.003-.242.008-.32.006-.078.016-.174.032-.289.015-.115.044-.27.085-.469l.188-.89c.031-.125.063-.258.094-.399.031-.14.06-.278.086-.414.026-.135.05-.26.07-.375.02-.114.036-.208.047-.281-.052-.083-.107-.167-.164-.25l-.18-.266c-.052-.062-.107-.133-.164-.21-.057-.079-.117-.165-.18-.258-.145-.053-.283-.125-.414-.22-.13-.093-.237-.192-.32-.296-.135.125-.286.297-.453.516-.167.218-.336.46-.508.726-.172.266-.344.542-.516.828-.171.287-.335.555-.492.805-.177.292-.328.544-.453.758-.125.213-.247.409-.367.586s-.247.349-.383.515c-.135.167-.302.35-.5.547-.156.156-.312.297-.469.422-.135.115-.276.224-.422.328-.145.104-.28.172-.406.203.084-.666.172-1.192.266-1.578.042-.219.094-.416.156-.594.063-.218.146-.479.25-.78l.32-.93c.11-.318.214-.636.313-.954.099-.317.174-.606.226-.867-.187-.146-.351-.291-.492-.437-.14-.146-.284-.323-.43-.532-.051-.02-.109-.046-.171-.078-.063-.03-.12-.083-.172-.156-.188.031-.365.138-.531.32-.167.183-.32.401-.461.657-.14.255-.271.533-.39.836-.12.302-.227.588-.321.859-.104.312-.206.68-.305 1.101-.099.422-.193.842-.281 1.258-.089.417-.164.8-.227 1.149-.062.349-.11.596-.14.742.073.208.145.396.218.562.073.167.167.355.282.563.041.083.08.167.117.25.036.083.08.172.133.266.177.177.333.307.468.39.136.084.302.177.5.281l.344.172c.396-.01.763-.075 1.102-.195.338-.12.661-.276.968-.469.308-.192.6-.411.875-.656.276-.245.55-.492.82-.742l.157-.156.281-.25.188-.172.125.25.219.406c.03.052.062.11.093.172l.094.187c.208.396.42.756.633 1.078.213.323.502.568.867.735zm6.922 0c.344.01.682-.005 1.016-.047.333-.042.62-.089.859-.14.083 0 .156.012.219.038.062.026.14.029.234.008.385-.073.737-.135 1.055-.187.317-.052.606-.125.867-.22.26-.093.492-.23.695-.413.203-.182.383-.445.54-.79-.063.011-.108-.002-.134-.038-.026-.037-.044-.081-.054-.133-.01-.052-.024-.107-.04-.164-.015-.057-.044-.107-.085-.149-.094.01-.172-.01-.235-.062-.062-.052-.122-.112-.18-.18-.057-.067-.117-.14-.179-.219-.063-.078-.135-.132-.219-.164-.24.084-.502.144-.789.18-.286.037-.534.112-.742.227-.333-.01-.61-.003-.828.023l-.64.078c-.21.026-.43.045-.665.055-.234.01-.528-.01-.883-.063.105-.28.224-.546.36-.796.135-.25.286-.485.453-.704.125.042.268.06.43.055.161-.005.299.018.414.07.083-.052.2-.067.351-.046.151.02.268.005.352-.047.041.03.075.047.101.047h.118c.25.01.476-.013.68-.07.202-.058.395-.134.577-.227.183-.094.357-.2.524-.32.166-.12.333-.238.5-.352.041-.104.054-.206.039-.305-.016-.099-.044-.19-.086-.273-.104.01-.195-.008-.274-.055-.078-.047-.153-.107-.226-.18-.073-.073-.146-.148-.219-.226-.073-.078-.146-.143-.219-.196-.01-.041-.005-.07.016-.086.02-.015.026-.049.016-.101-.427.01-.862.036-1.305.078-.443.042-.846.047-1.211.016-.031-.063-.044-.144-.04-.243.006-.098-.012-.195-.054-.289.094-.03.188-.06.281-.086.094-.026.172-.07.235-.132.208.02.367.005.476-.047.11-.052.232-.052.368 0 .343-.209.69-.344 1.039-.406.349-.063.69-.123 1.023-.18.333-.057.643-.151.93-.281.286-.13.539-.373.758-.727-.021-.073-.032-.128-.032-.164 0-.036.003-.07.008-.102l.016-.101c.005-.037.002-.091-.008-.164-.198-.084-.378-.185-.54-.305-.16-.12-.293-.268-.398-.445.01.094-.013.122-.07.086-.057-.037-.107-.008-.148.086-.084 0-.172-.047-.266-.14-.437.082-.828.145-1.172.187-.344.041-.674.085-.992.132-.318.047-.64.107-.969.18-.328.073-.7.177-1.117.313-.229.052-.448.099-.656.14-.208.042-.401.094-.578.156-.177.063-.341.144-.492.243-.151.099-.28.226-.383.382.052.178.088.352.11.524.02.172.046.338.077.5.031.161.081.323.149.484.067.162.174.31.32.446-.073.197-.148.377-.227.539-.078.161-.156.32-.234.476-.078.156-.154.318-.226.485-.073.166-.141.343-.204.53-.073-.01-.114.009-.125.055-.01.047-.041.076-.093.086.03.146-.003.282-.102.407-.099.125-.164.265-.195.422-.031.145-.04.307-.024.484s.04.357.07.539c.032.182.063.357.094.523.032.167.052.318.063.454.114.052.185.127.21.226.027.1.082.185.165.258.198.198.453.336.766.414.312.078.64.122.984.133zm7.969.047c.343 0 .687-.047 1.03-.14.345-.095.662-.188.954-.282l.36-.094c.135 0 .268-.005.398-.016.13-.01.258-.026.383-.046l.375-.032c.125-.01.244-.015.359-.015.302 0 .594.047.875.14.208-.052.385-.078.531-.078h.102c.036 0 .096-.005.18-.015.052-.053.106-.1.164-.141.057-.042.164-.078.32-.11l-.031-.171c.041-.042.062-.104.062-.188.01-.031-.02-.094-.094-.187l-.109-.672c-.104-.084-.21-.149-.32-.196-.11-.046-.222-.09-.336-.132-.125-.042-.245-.089-.36-.14-.114-.053-.234-.136-.359-.25-.052-.011-.115-.017-.188-.017-.052 0-.09-.002-.117-.007-.026-.006-.086-.034-.18-.086-.124.02-.26.03-.406.03h-.437c-.365.011-.732.032-1.102.063-.37.032-.71.13-1.023.297-.125-.03-.234-.047-.328-.047h-.133c-.047 0-.096.01-.149.032.021-.386.081-.73.18-1.032.1-.302.211-.604.336-.906.073-.166.143-.333.211-.5.068-.166.117-.385.149-.656.052-.042.09-.091.117-.149.026-.057.05-.111.07-.164.02-.052.04-.099.055-.14.015-.042.044-.089.086-.14.041-.23.093-.423.156-.579.062-.156.13-.312.203-.469.063-.146.122-.291.18-.437.057-.146.112-.323.164-.531.031 0 .078-.047.14-.141.032-.23.006-.414-.078-.555-.083-.14-.182-.278-.297-.414-.02-.02-.041-.044-.062-.07-.021-.026-.073-.065-.156-.117-.167 0-.375-.045-.625-.133-.25-.089-.47-.18-.657-.274-.041.01-.093.026-.156.047-.042.021-.104.058-.187.11-.125.53-.266 1.026-.422 1.484-.156.458-.323.922-.5 1.39-.104.272-.206.545-.305.821-.099.276-.221.612-.367 1.008-.052.094-.1.198-.14.312-.042.115-.042.22 0 .313-.084.114-.15.25-.196.406-.047.156-.091.318-.133.484-.01.053-.018.1-.023.141-.006.042-.019.083-.04.125-.051.188-.085.385-.1.594-.017.208-.011.414.015.617s.075.401.148.594c.073.192.172.362.297.508.01.083.029.148.055.195.026.047.054.091.086.133.041.041.088.12.14.234.302.26.714.39 1.235.39zm8.53 0c.345 0 .688-.047 1.032-.14.344-.095.662-.188.953-.282l.36-.094c.135 0 .268-.005.398-.016.13-.01.258-.026.383-.046l.375-.032c.125-.01.245-.015.36-.015.301 0 .593.047.874.14.209-.052.386-.078.531-.078h.102c.037 0 .096-.005.18-.015.052-.053.107-.1.164-.141.057-.042.164-.078.32-.11l-.031-.171c.042-.042.062-.104.062-.188.01-.031-.02-.094-.093-.187l-.11-.672c-.104-.084-.21-.149-.32-.196-.11-.046-.221-.09-.336-.132-.125-.042-.245-.089-.36-.14-.114-.053-.234-.136-.359-.25-.052-.011-.114-.017-.187-.017-.052 0-.091-.002-.117-.007-.026-.006-.086-.034-.18-.086-.125.02-.26.03-.406.03h-.438c-.364.011-.732.032-1.101.063-.37.032-.711.13-1.024.297-.125-.03-.234-.047-.328-.047h-.133c-.047 0-.096.01-.148.032.02-.386.08-.73.18-1.032.098-.302.21-.604.335-.906.073-.166.144-.333.211-.5.068-.166.118-.385.149-.656.052-.042.09-.091.117-.149.026-.057.05-.111.07-.164.021-.052.04-.099.055-.14.016-.042.044-.089.086-.14.042-.23.094-.423.156-.579.063-.156.13-.312.203-.469.063-.146.123-.291.18-.437.057-.146.112-.323.164-.531.031 0 .078-.047.14-.141.032-.23.006-.414-.077-.555-.084-.14-.183-.278-.297-.414-.021-.02-.042-.044-.063-.07-.02-.026-.073-.065-.156-.117-.167 0-.375-.045-.625-.133-.25-.089-.469-.18-.656-.274-.042.01-.094.026-.157.047-.041.021-.104.058-.187.11-.125.53-.266 1.026-.422 1.484-.156.458-.323.922-.5 1.39-.104.272-.206.545-.305.821-.099.276-.221.612-.367 1.008-.052.094-.099.198-.14.312-.042.115-.042.22 0 .313-.084.114-.149.25-.196.406-.047.156-.091.318-.133.484-.01.053-.018.1-.023.141-.005.042-.018.083-.04.125-.051.188-.085.385-.1.594-.016.208-.011.414.015.617s.075.401.148.594c.073.192.172.362.297.508.01.083.029.148.055.195.026.047.055.091.086.133.042.041.088.12.14.234.303.26.714.39 1.235.39zm8.515-.06l.205-.003c.208-.01.393-.06.554-.148.162-.089.287-.222.375-.399.089-.177.107-.422.055-.734-.094-.51-.128-1.016-.102-1.516.026-.5.092-.997.196-1.492.104-.495.237-.987.398-1.476.162-.49.336-.985.524-1.485-.084-.031-.144-.096-.18-.195-.037-.1-.06-.208-.07-.328-.01-.12-.016-.242-.016-.367v-.313c-.125-.062-.214-.148-.266-.258-.052-.11-.09-.226-.117-.351l-.078-.375c-.026-.125-.08-.24-.164-.344-.156 0-.29.026-.398.078-.11.052-.209.112-.297.18-.089.067-.175.143-.258.226-.083.084-.172.157-.266.22.021.176-.008.345-.086.507-.078.161-.143.284-.195.367-.052.104-.07.193-.055.266.016.073.008.166-.023.28-.01.053-.042.087-.094.102-.052.016-.083.045-.094.086-.02.073-.013.151.024.235.036.083.044.172.023.265-.083.428-.195.839-.336 1.235-.14.396-.247.812-.32 1.25-.02.156-.034.32-.04.492-.004.172-.01.341-.015.508-.005.166-.015.33-.03.492-.017.161-.05.305-.102.43.041.177.09.38.148.61.057.228.122.46.195.694.073.235.151.461.235.68.083.219.177.401.28.547.188.031.386.042.595.031l-.205.004zm4.189-.08c.083-.011.154-.035.21-.071.058-.037.144-.045.259-.024-.01-.062-.026-.099-.047-.11-.021-.01-.016-.036.016-.077.166.01.28-.021.343-.094s.107-.161.133-.266c.026-.104.05-.213.07-.328.021-.114.073-.203.157-.265-.042-.104-.052-.196-.032-.274.021-.078.052-.15.094-.219.042-.067.086-.132.133-.195.047-.062.075-.135.086-.219.073 0 .127-.039.164-.117.036-.078.073-.164.11-.258.036-.093.075-.184.117-.273.041-.089.109-.143.203-.164.208.562.476 1.047.804 1.453.328.406.706.766 1.133 1.078.292.104.529.14.711.11.182-.032.339-.094.469-.188.13-.094.252-.198.367-.312.115-.115.245-.204.39-.266-.02-.052-.028-.094-.023-.125.005-.031.016-.055.031-.07.016-.016.03-.034.04-.055.01-.02.01-.052 0-.094.062.01.098.026.109.047.01.02.036.01.078-.031.104-.188.203-.375.297-.563.094-.187.224-.349.39-.484.053-.219.125-.464.22-.734l.265-.766c-.01-.281 0-.54.031-.774.031-.234.07-.46.117-.68.047-.218.094-.44.14-.663.048-.224.087-.472.118-.742.094-.063.167-.138.219-.227.052-.089.094-.185.125-.29.031-.103.06-.207.086-.312.026-.104.065-.197.117-.28-.031-.188-.099-.365-.203-.532-.104-.167-.219-.339-.344-.516-.156-.02-.286-.07-.39-.148-.105-.078-.204-.162-.297-.25-.094-.089-.196-.172-.305-.25-.11-.078-.242-.128-.399-.149-.062.125-.114.263-.156.414l-.125.454c-.041.15-.088.294-.14.43-.052.135-.125.25-.22.343-.082.51-.16 1.01-.233 1.5-.073.49-.18.948-.32 1.375-.141.427-.324.813-.548 1.156-.224.344-.523.625-.898.844-.063-.27-.1-.534-.11-.789-.01-.255-.013-.5-.007-.734.005-.235.013-.467.023-.696.01-.229 0-.458-.031-.687.031.01.055.008.07-.008.016-.016.029-.031.04-.047.01-.016.023-.031.038-.047.016-.015.04-.023.07-.023-.03-.104-.036-.19-.015-.258.02-.068.047-.13.078-.188.031-.057.055-.122.07-.195.016-.073.003-.166-.039-.281.052.02.086.02.102 0s.044-.026.086-.016c-.031-.062-.047-.112-.047-.148 0-.037.003-.065.008-.086.005-.02.005-.042 0-.063-.005-.02-.029-.057-.07-.109.02-.031.044-.039.07-.023.026.015.05-.008.07-.07-.042-.25-.13-.477-.266-.68-.135-.204-.299-.383-.492-.54-.192-.156-.406-.294-.64-.414-.235-.12-.472-.226-.711-.32-.542 1.198-1.115 2.412-1.719 3.64-.604 1.23-1.161 2.386-1.672 3.47.052.072.089.164.11.273.02.11.015.221-.016.336.073.146.148.318.226.516.079.197.167.393.266.585.099.193.214.368.344.524.13.156.294.266.492.328zm10.516.015c.104.01.221-.003.351-.04.13-.036.258-.054.383-.054h.352c.14 0 .299-.016.476-.047.021-.02.037-.044.047-.07.01-.026.036-.034.078-.024.115-.01.219-.023.313-.039l.289-.047c.099-.015.203-.028.312-.039.11-.01.237-.015.383-.015.5-.198 1.018-.36 1.555-.485.536-.125 1.05-.268 1.539-.43.49-.16.937-.364 1.344-.609.406-.245.734-.59.984-1.039.01-.125 0-.229-.031-.312-.032-.084-.037-.193-.016-.328-.146-.073-.273-.162-.383-.266-.11-.104-.216-.211-.32-.32-.104-.11-.214-.217-.328-.32-.115-.105-.245-.188-.39-.25-.168-.094-.347-.19-.54-.29-.193-.099-.38-.198-.562-.297-.183-.099-.357-.198-.524-.297-.167-.098-.307-.19-.422-.273l-1.078.719c-.02.083-.05.156-.086.219-.036.062-.06.14-.07.234.042.02.068.023.078.008.01-.016.018-.034.023-.055.006-.02.013-.036.024-.047.01-.01.036-.01.078 0 .063.042.094.1.094.172 0 .073-.031.135-.094.188.02.208.076.375.164.5.089.125.206.229.352.312-.042.042-.092.08-.149.117-.057.037-.06.081-.008.133.063.02.128.044.196.07l.226.086c-.531.146-1.052.284-1.562.414s-1.063.227-1.656.29c-.042.02-.068.052-.079.093-.01.042-.03.073-.062.094-.292-.063-.58-.08-.867-.055-.287.026-.597.029-.93.008-.02-.052-.044-.091-.07-.117-.026-.026-.05-.065-.07-.117.166-.292.37-.586.609-.883.24-.297.495-.586.765-.867.271-.282.552-.55.844-.805.292-.255.578-.487.86-.695.28-.209.57-.394.867-.555.297-.161.583-.313.86-.453.275-.14.54-.274.796-.399.255-.125.487-.255.695-.39-.02-.073-.018-.125.008-.156.026-.032.04-.073.04-.125 0-.053-.03-.081-.087-.086-.057-.006-.091-.034-.101-.086.073 0 .112-.024.117-.07.005-.048-.003-.094-.024-.141-.02-.047-.033-.094-.039-.14-.005-.048.024-.071.086-.071-.062-.156-.15-.281-.265-.375-.115-.094-.237-.175-.368-.242-.13-.068-.26-.133-.39-.196-.13-.062-.232-.172-.305-.328-.062-.02-.12-.02-.172 0-.052.021-.135.005-.25-.047-.27.24-.57.456-.898.649l-.992.578c-.334.193-.651.393-.953.601-.303.209-.563.438-.782.688-.094.02-.172.055-.234.101-.063.047-.117.102-.164.165-.047.062-.097.125-.149.187-.052.063-.114.125-.187.188-.48.375-.89.81-1.234 1.304-.344.495-.652 1.029-.922 1.602.02.114.018.208-.008.281-.026.073-.04.162-.04.266.022.02.045.036.071.047.026.01.034.041.024.093.052.917.299 1.633.742 2.149.442.515 1.054.794 1.836.836zm18.265-.235c.531-.218 1.003-.424 1.414-.617.412-.193.782-.398 1.11-.617.328-.219.625-.469.89-.75.266-.281.519-.63.758-1.047l.188-.219.25-.062.093-.485.375.141c.032-.031.065-.083.102-.156.036-.073.065-.125.086-.156.042-.084.086-.167.133-.25.047-.084.101-.157.164-.22.114-.25.263-.543.445-.882.182-.339.367-.67.555-.992l.031-.172c.042-.302.086-.591.133-.867.047-.276.122-.57.226-.883-.02-.24-.06-.443-.117-.61-.057-.166-.122-.338-.195-.515-.073-.188-.14-.383-.203-.586-.063-.203-.104-.445-.125-.727-.136-.145-.284-.291-.446-.437-.161-.146-.335-.281-.523-.406-.27.114-.448.291-.531.53-.021.043-.034.087-.04.134-.005.047.008.096.04.148l.047.203c-.021.209-.13.36-.328.453-.021.344-.068.714-.141 1.11-.073.396-.175.791-.305 1.187s-.294.779-.492 1.149-.422.7-.672.992c-.26.292-.51.544-.75.758-.24.213-.49.403-.75.57-.26.167-.542.31-.844.43-.302.12-.64.226-1.015.32l-.344.031-.094-.25c-.073-.198-.125-.442-.156-.734s-.04-.596-.023-.914c.015-.318.057-.633.125-.945.067-.313.164-.589.289-.829-.01-.208-.058-.43-.141-.664-.083-.234-.172-.46-.266-.68-.052-.114-.099-.223-.14-.327-.042-.105-.078-.214-.11-.329-.187-.072-.328-.174-.422-.304-.093-.13-.166-.253-.218-.367-.073-.146-.138-.25-.196-.313-.057-.062-.18-.088-.367-.078-.052.083-.122.18-.21.289-.09.11-.222.185-.4.227-.04.114-.075.234-.1.359-.027.125-.05.26-.071.406-.02.167-.05.341-.086.524-.036.182-.091.367-.164.554.031.032.057.115.078.25l-.031.078c-.188.553-.284 1.19-.29 1.914-.004.724.014 1.514.055 2.368v.297c.032.041.066.078.102.109.037.031.07.062.102.094l.406.468-.313.094c.084.115.154.235.211.36.058.125.112.25.164.375.115.229.224.437.328.625.105.187.26.333.47.437.062 0 .13.02.202.063.073.041.13.109.172.203.177.02.334.036.469.047.135.01.276.015.422.015.146.01.294.018.445.024.151.005.33.023.54.054zm7.735.22c.083-.011.153-.035.21-.071.058-.037.144-.045.258-.024-.01-.062-.026-.099-.047-.11-.02-.01-.015-.036.016-.077.167.01.281-.021.344-.094.062-.073.107-.161.133-.266.026-.104.05-.213.07-.328.02-.114.073-.203.156-.265-.041-.104-.052-.196-.031-.274.02-.078.052-.15.094-.219.041-.067.086-.132.133-.195.046-.062.075-.135.085-.219.073 0 .128-.039.165-.117.036-.078.072-.164.109-.258.036-.093.075-.184.117-.273.042-.089.11-.143.203-.164.209.562.477 1.047.805 1.453.328.406.706.766 1.133 1.078.291.104.528.14.71.11.183-.032.34-.094.47-.188.13-.094.252-.198.367-.312.114-.115.244-.204.39-.266-.02-.052-.028-.094-.023-.125.005-.031.015-.055.031-.07.016-.016.029-.034.04-.055.01-.02.01-.052 0-.094.062.01.098.026.108.047.01.02.037.01.079-.031.104-.188.203-.375.297-.563.093-.187.223-.349.39-.484.052-.219.125-.464.219-.734l.266-.766c-.01-.281 0-.54.03-.774.032-.234.071-.46.118-.68.047-.218.094-.44.14-.663.047-.224.087-.472.118-.742.094-.063.166-.138.219-.227.052-.089.093-.185.125-.29.03-.103.06-.207.085-.312.026-.104.066-.197.118-.28-.032-.188-.1-.365-.203-.532-.105-.167-.22-.339-.344-.516-.156-.02-.287-.07-.39-.148-.105-.078-.204-.162-.298-.25-.094-.089-.195-.172-.304-.25-.11-.078-.243-.128-.399-.149-.062.125-.114.263-.156.414l-.125.454c-.042.15-.089.294-.14.43-.053.135-.126.25-.22.343-.083.51-.161 1.01-.234 1.5-.073.49-.18.948-.32 1.375-.14.427-.323.813-.547 1.156-.224.344-.524.625-.899.844-.062-.27-.098-.534-.109-.789-.01-.255-.013-.5-.008-.734.006-.235.013-.467.024-.696.01-.229 0-.458-.031-.687.03.01.054.008.07-.008.015-.016.028-.031.039-.047.01-.016.023-.031.039-.047.016-.015.039-.023.07-.023-.031-.104-.036-.19-.015-.258.02-.068.047-.13.078-.188.031-.057.054-.122.07-.195.016-.073.003-.166-.039-.281.052.02.086.02.102 0 .015-.02.044-.026.085-.016-.03-.062-.046-.112-.046-.148 0-.037.002-.065.007-.086.006-.02.006-.042 0-.063-.005-.02-.028-.057-.07-.109.021-.031.044-.039.07-.023.026.015.05-.008.07-.07-.04-.25-.13-.477-.265-.68-.135-.204-.3-.383-.492-.54-.193-.156-.406-.294-.64-.414-.235-.12-.472-.226-.712-.32-.541 1.198-1.114 2.412-1.718 3.64-.605 1.23-1.162 2.386-1.672 3.47.052.072.088.164.11.273.02.11.015.221-.017.336.073.146.149.318.227.516.078.197.167.393.266.585.099.193.213.368.343.524.13.156.295.266.493.328zm9.967.08l.204-.003c.209-.01.394-.06.555-.148.162-.089.287-.222.375-.399.089-.177.107-.422.055-.734-.094-.51-.128-1.016-.102-1.516.026-.5.091-.997.196-1.492.104-.495.237-.987.398-1.476.162-.49.336-.985.524-1.485-.084-.031-.144-.096-.18-.195-.037-.1-.06-.208-.07-.328-.01-.12-.016-.242-.016-.367v-.313c-.125-.062-.214-.148-.266-.258-.052-.11-.09-.226-.117-.351l-.078-.375c-.026-.125-.08-.24-.164-.344-.156 0-.29.026-.399.078-.109.052-.208.112-.296.18-.089.067-.175.143-.258.226-.084.084-.172.157-.266.22.021.176-.008.345-.086.507-.078.161-.143.284-.195.367-.052.104-.07.193-.055.266.016.073.008.166-.023.28-.01.053-.042.087-.094.102-.052.016-.083.045-.094.086-.02.073-.013.151.024.235.036.083.044.172.023.265-.083.428-.195.839-.336 1.235-.14.396-.247.812-.32 1.25-.021.156-.034.32-.04.492-.004.172-.01.341-.015.508-.005.166-.015.33-.031.492-.016.161-.05.305-.102.43.042.177.092.38.149.61.057.228.122.46.195.694.073.235.151.461.234.68.084.219.178.401.282.547.187.031.385.042.594.031l-.205.004zm6.423.17c.375 0 .64-.1.797-.298.146-.177.193-.416.14-.719l-.14-.156c-.083-.041-.146-.078-.187-.11-.032-.01-.078-.036-.141-.077-.01-.052-.029-.094-.055-.125l-.086-.11c-.01-.073 0-.172.032-.297l.03-.164c.011-.057.011-.112 0-.164.053-.03.079-.099.079-.203 0-.02.005-.055.016-.101.01-.047.026-.097.047-.149.062-.114.098-.229.109-.344.042-.03.068-.065.078-.101.01-.037.047-.086.11-.149l.062-.187c.031-.125.078-.274.14-.445.063-.172.157-.336.282-.493.041-.177.096-.336.164-.476.068-.14.153-.294.258-.461.062-.208.127-.404.195-.586.068-.182.143-.362.226-.54.084-.166.162-.338.235-.515.073-.177.146-.38.219-.61.156-.01.33-.025.523-.046.193-.02.393-.047.602-.078.291-.042.588-.08.89-.117.302-.037.584-.055.844-.055.063 0 .122.003.18.008.057.005.132.008.226.008.052-.01.1-.024.14-.04.043-.015.084-.033.126-.054.052-.02.104-.04.156-.055.052-.015.11-.023.172-.023l.156.015.14-.187c.043-.02.105-.094.188-.219.032-.302-.015-.531-.14-.687-.125-.157-.25-.292-.375-.407-.063-.052-.123-.104-.18-.156-.057-.052-.101-.11-.133-.172l-.156-.11c-.115-.02-.24-.036-.375-.046-.135-.01-.276-.016-.422-.016-.333 0-.68.021-1.039.063-.36.042-.716.088-1.07.14-.24.042-.477.076-.711.102-.235.026-.466.05-.696.07-.052-.052-.117-.106-.195-.164-.078-.057-.21-.08-.398-.07l-.156.078c-.042.084-.084.172-.125.266-.23.02-.451.041-.665.062l-.632.063c-.365.031-.72.06-1.063.086-.344.026-.682.039-1.016.039h-.437l-.203-.016-.047.235c-.02.03-.047.067-.078.109-.031.042-.052.104-.063.187 0 .167.019.31.055.43.037.12.076.232.117.336.021.073.042.138.063.195.02.058.036.118.047.18l.14.188c.042.01.125.099.25.265.094.052.183.086.266.102.083.015.161.023.234.023.021 0 .047-.002.078-.008l.043-.005.036-.002h.515c.063-.032.146-.047.25-.047.021 0 .044.002.07.007.026.006.055.008.086.008h.157c.135 0 .26-.026.375-.078.03.01.083.016.156.016.052 0 .104-.003.156-.008.052-.005.11-.013.172-.023.052-.01.104-.019.156-.024.052-.005.11-.008.172-.008l-.07.18c-.026.068-.055.138-.086.21-.052.116-.102.227-.149.337-.046.11-.106.247-.18.414l-.14.156c-.062.23-.135.45-.219.664-.083.214-.166.425-.25.633-.145.385-.286.787-.422 1.203-.135.417-.192.927-.171 1.531.041.063.075.136.101.22.026.083.05.171.07.265.021.114.05.229.086.344.037.114.092.218.165.312v.188l.14.078c.083.041.193.093.328.156.042.062.089.104.14.125.053.02.12.047.204.078.01.031.042.073.094.125h.187z" transform="translate(-690 -918) translate(0 700) translate(690 204.28) translate(37)"/>
                        <g fill="#CCC">
                            <path d="M31.858 16.96c-1.847-5.594-3.31-11.34-6.389-16.475-.308-.536-1.308-.69-1.54 0-2.232 5.287-4.54 10.498-6.003 16.015-.231.92.923 1.61 1.616.92 1.309-1.303 2.694-2.529 4.157-3.602-.154 11.341.23 24.52-13.317 28.046-6.003 1.532-16.472 4.444-2.617 2.528 6.85-.92 12.624-4.137 15.549-10.65 2.617-5.824 2.463-12.797 2.309-19.157 1.463 1.302 3.079 2.452 4.772 3.371.77.46 1.77-.153 1.463-.996zm-6.928-5.057c-.461-.154-.77.076-.923.46l-.077.076c-1.232.383-2.31.996-3.31 1.686 1.154-3.755 2.694-7.433 4.156-11.034 2.002 3.754 3.156 7.816 4.465 11.8-1.386-1.15-2.694-2.299-4.31-2.988z" transform="translate(-690 -918) translate(0 700) translate(690 204.28) translate(37) scale(1 -1) rotate(48 209.274 302.961)"/>
                        </g>
                    </g>
                </g>
            </g>
        </g>
    </g>
</svg>
