<svg xmlns="http://www.w3.org/2000/svg" width="33" height="30" viewBox="0 0 33 30">
    <g fill="none" fill-rule="evenodd">
        <g fill="#00235A" fill-rule="nonzero">
            <g>
                <g>
                    <g>
                        <path d="M15 30C6.73 30 0 23.27 0 15S6.73 0 15 0c2.876 0 5.674.82 8.092 2.371.474.306.614.939.308 1.415-.307.475-.938.613-1.414.308C19.9 2.754 17.483 2.045 15 2.045 7.857 2.045 2.045 7.857 2.045 15S7.857 27.955 15 27.955 27.955 22.143 27.955 15c0-.427-.02-.85-.06-1.265-.055-.564.357-1.063.919-1.117.564-.052 1.062.357 1.117.919.046.481.069.97.069 1.463 0 8.27-6.73 15-15 15z" transform="translate(-100 -1099) translate(0 700) translate(100 397) translate(0 2)"/>
                        <path d="M17.102 19c-.26 0-.52-.1-.717-.3l-6.088-6.12c-.396-.398-.396-1.044 0-1.442.397-.399 1.04-.399 1.436 0l5.37 5.4 14.164-14.24c.397-.398 1.04-.398 1.436 0 .396.4.396 1.045 0 1.444L17.82 18.702c-.2.199-.459.298-.719.298z" transform="translate(-100 -1099) translate(0 700) translate(100 397) translate(0 2)"/>
                    </g>
                </g>
            </g>
        </g>
    </g>
</svg>
