<svg xmlns="http://www.w3.org/2000/svg" width="650" height="409" viewBox="0 0 650 409">
    <g fill="none" fill-rule="evenodd">
        <g fill-rule="nonzero">
            <g>
                <g>
                    <g>
                        <g>
                            <path stroke="#979797" d="M424.072 369.296L649.764 241.875 249.488 16.611 0 122.705z" transform="translate(-687 -1630) translate(0 1347) translate(687 283) matrix(-1 0 0 1 650 38.72) translate(0 .279)"/>
                            <g>
                                <g>
                                    <path fill="#FFF" stroke="#DA4C39" d="M92.741 157.17L174.123 110.511 174.123 58.304 93.161 104.955zM49.036 52.62L4.762 53.909 4.536 103.18 92.741 154.077 93.161 104.955z" transform="translate(-687 -1630) translate(0 1347) translate(687 283) matrix(-1 0 0 1 650 38.72) translate(0 .279) rotate(3 48.492 2500.993)"/>
                                    <path fill="#F3D3CE" stroke="#DA4C39" d="M97.595 107.199L178.556 60.553 130.007 2.974 49.045 49.62z" transform="translate(-687 -1630) translate(0 1347) translate(687 283) matrix(-1 0 0 1 650 38.72) translate(0 .279) rotate(3 48.492 2500.993)"/>
                                    <path fill="#F3D3CE" stroke="#DA4C39" d="M40.683 48.173L131.482 6.38 84.932 4.72 1.455 45.43z" transform="translate(-687 -1630) translate(0 1347) translate(687 283) matrix(-1 0 0 1 650 38.72) translate(0 .279) rotate(3 48.492 2500.993) rotate(176 66.469 26.447)"/>
                                    <path fill="#FFF" stroke="#DA4C39" d="M49.045 49.62L0.307 51.037 0.299 54.041 4.762 53.909 49.036 52.62 93.161 104.955 97.59 110.204 97.595 107.199z" transform="translate(-687 -1630) translate(0 1347) translate(687 283) matrix(-1 0 0 1 650 38.72) translate(0 .279) rotate(3 48.492 2500.993)"/>
                                    <path stroke="#DA4C39" d="M97.59 110.204L178.548 63.553 178.556 60.553 97.595 107.199z" transform="translate(-687 -1630) translate(0 1347) translate(687 283) matrix(-1 0 0 1 650 38.72) translate(0 .279) rotate(3 48.492 2500.993)"/>
                                    <path fill="#DA4C39" d="M69.595 101.328L69.59 102.087 23.144 75.267 23.144 74.503z" transform="translate(-687 -1630) translate(0 1347) translate(687 283) matrix(-1 0 0 1 650 38.72) translate(0 .279) rotate(3 48.492 2500.993)"/>
                                    <path fill="#DA4C39" d="M32.186 70.633L32.092 104.319 31.456 103.948 31.55 70.266zM61.944 87.783L61.85 121.469 61.184 121.085 61.282 87.399z" transform="translate(-687 -1630) translate(0 1347) translate(687 283) matrix(-1 0 0 1 650 38.72) translate(0 .279) rotate(3 48.492 2500.993)"/>
                                    <path fill="#DA4C39" d="M68.87 125.51l.093-32.922-45.789-26.44-.094 32.926 45.79 26.437zM22.512 65.009l47.111 27.2-.098 34.446-47.112-27.2.099-34.446z" transform="translate(-687 -1630) translate(0 1347) translate(687 283) matrix(-1 0 0 1 650 38.72) translate(0 .279) rotate(3 48.492 2500.993)"/>
                                    <path stroke="#DA4C39" d="M128.057 57.946L128.116 67.906 135.716 63.6 135.656 53.636z" transform="translate(-687 -1630) translate(0 1347) translate(687 283) matrix(-1 0 0 1 650 38.72) translate(0 .279) rotate(3 48.492 2500.993)"/>
                                    <path d="M128.116 67.906l7.6-4.306-.06-9.964-7.6 4.31.06 9.96zm8.03-4.063l-8.456 4.801-.064-10.946 8.457-4.8.064 10.945z" transform="translate(-687 -1630) translate(0 1347) translate(687 283) matrix(-1 0 0 1 650 38.72) translate(0 .279) rotate(3 48.492 2500.993)"/>
                                    <path stroke="#DA4C39" d="M92.741 149.372L92.741 157.211 4.536 106.265 4.536 99.032z" transform="translate(-687 -1630) translate(0 1347) translate(687 283) matrix(-1 0 0 1 650 38.72) translate(0 .279) rotate(3 48.492 2500.993)"/>
                                    <path fill="#DA4C39" d="M149.187 97.099L149.285 123.027 149.848 122.703 149.746 96.779z" transform="translate(-687 -1630) translate(0 1347) translate(687 283) matrix(-1 0 0 1 650 38.72) translate(0 .279) rotate(3 48.492 2500.993)"/>
                                    <path fill="#DA4C39" d="M137.098 103.773L137.103 104.417 159.27 91.619 159.27 90.975z" transform="translate(-687 -1630) translate(0 1347) translate(687 283) matrix(-1 0 0 1 650 38.72) translate(0 .279) rotate(3 48.492 2500.993)"/>
                                    <path fill="#DA4C39" d="M137.073 96.693L137.196 129.957 137.755 129.633 137.632 96.992 159.24 84.514 159.363 117.159 159.922 116.835 159.799 83.571zM127.024 109.913L127.122 135.842 127.681 135.517 127.583 109.593z" transform="translate(-687 -1630) translate(0 1347) translate(687 283) matrix(-1 0 0 1 650 38.72) translate(0 .279) rotate(3 48.492 2500.993)"/>
                                    <path fill="#DA4C39" d="M114.94 116.588L114.94 117.232 137.107 104.434 137.103 103.79z" transform="translate(-687 -1630) translate(0 1347) translate(687 283) matrix(-1 0 0 1 650 38.72) translate(0 .279) rotate(3 48.492 2500.993)"/>
                                    <path fill="#DA4C39" d="M114.906 109.508L115.034 142.772 115.593 142.448 115.469 109.802 137.077 97.329 137.201 129.974 137.76 129.65 137.636 96.382z" transform="translate(-687 -1630) translate(0 1347) translate(687 283) matrix(-1 0 0 1 650 38.72) translate(0 .279) rotate(3 48.492 2500.993)"/>
                                    <path stroke="#DA4C39" d="M92.741 149.372L92.888 157.17 115.26 144.115 115.26 136.733z" transform="translate(-687 -1630) translate(0 1347) translate(687 283) matrix(-1 0 0 1 650 38.72) translate(0 .279) rotate(3 48.492 2500.993)"/>
                                </g>
                            </g>
                            <path fill="#FFF" d="M413.604 196.766L415.394 195.36 439.51 209.139 439.51 244.448 437.719 245.441z" transform="translate(-687 -1630) translate(0 1347) translate(687 283) matrix(-1 0 0 1 650 38.72) translate(0 .279)"/>
                            <path fill="#DBDBDB" d="M413.604 231.662L413.604 196.351 437.719 210.131 437.719 245.441z" transform="translate(-687 -1630) translate(0 1347) translate(687 283) matrix(-1 0 0 1 650 38.72) translate(0 .279)"/>
                            <path fill="#566472" d="M434.931 211.052L416.392 200.461 416.392 230.739 434.931 241.331z" transform="translate(-687 -1630) translate(0 1347) translate(687 283) matrix(-1 0 0 1 650 38.72) translate(0 .279)"/>
                            <path fill="#DBDBDB" d="M425.798 204.842L425.798 236.96 424.405 236.162 424.405 204.047z" transform="translate(-687 -1630) translate(0 1347) translate(687 283) matrix(-1 0 0 1 650 38.72) translate(0 .279)"/>
                            <path fill="#FFF" stroke="#979797" d="M495.953 178.293L394.755 236.115 495.953 293.935 597.15 236.115z" transform="translate(-687 -1630) translate(0 1347) translate(687 283) matrix(-1 0 0 1 650 38.72) translate(0 .279)"/>
                            <path fill="#FFF" stroke="#979797" d="M597.15 245.913L495.953 303.733 495.953 293.935 510.769 285.468 597.15 236.115zM495.953 303.733L394.755 245.913 394.755 236.115 495.953 293.935z" transform="translate(-687 -1630) translate(0 1347) translate(687 283) matrix(-1 0 0 1 650 38.72) translate(0 .279)"/>
                            <path fill="#FFF" stroke="#979797" d="M352.444 206.669L302.779 234.621 403.978 292.441 453.642 264.491zM448.54 267.407L403.978 292.441 403.978 302.239 448.54 277.205z" transform="translate(-687 -1630) translate(0 1347) translate(687 283) matrix(-1 0 0 1 650 38.72) translate(0 .279)"/>
                            <path fill="#FFF" stroke="#979797" d="M403.978 302.239L302.779 244.419 302.779 234.621 403.978 292.441zM495.953 288.789L495.953 224.815 403.768 172.143 403.768 236.117z" transform="translate(-687 -1630) translate(0 1347) translate(687 283) matrix(-1 0 0 1 650 38.72) translate(0 .279)"/>
                            <path fill="#FFF" stroke="#979797" d="M404.547 286.972L404.547 223 355.611 128.543 309.583 169.339 309.583 233.314zM448.622 197.816L404.547 223 404.547 286.972 448.622 261.79zM542.045 131.965L588.137 172.143 588.137 188.494 588.094 236.799 565.452 249.078 495.953 288.789 495.953 224.815z" transform="translate(-687 -1630) translate(0 1347) translate(687 283) matrix(-1 0 0 1 650 38.72) translate(0 .279)"/>
                            <path fill="#FFF" stroke="#979797" d="M540.697 125.212L491.743 223.832 399.556 171.162 448.513 72.54z" transform="translate(-687 -1630) translate(0 1347) translate(687 283) matrix(-1 0 0 1 650 38.72) translate(0 .279)"/>
                            <path fill="#FFF" stroke="#979797" d="M592.349 170.235L592.349 172.8 588.137 175.207 588.137 172.143 542.045 131.965 495.953 224.815 495.953 227.879 491.743 230.285 491.743 223.832 540.697 125.212zM491.743 230.285L491.743 223.832 399.556 171.162 399.556 177.613zM454.231 255.35L454.231 220.039 478.347 233.818 478.347 269.129z" transform="translate(-687 -1630) translate(0 1347) translate(687 283) matrix(-1 0 0 1 650 38.72) translate(0 .279)"/>
                            <path fill="#FFF" stroke="#979797" d="M475.559 234.74L457.019 224.147 457.019 254.425 475.559 265.019z" transform="translate(-687 -1630) translate(0 1347) translate(687 283) matrix(-1 0 0 1 650 38.72) translate(0 .279)"/>
                            <path fill="#FFF" stroke="#979797" d="M466.426 228.528L466.426 260.646 465.033 259.85 465.033 227.733zM539.683 255.35L539.683 220.039 515.568 233.818 515.568 269.129z" transform="translate(-687 -1630) translate(0 1347) translate(687 283) matrix(-1 0 0 1 650 38.72) translate(0 .279)"/>
                            <path fill="#FFF" stroke="#979797" d="M518.356 234.74L536.895 224.147 536.895 254.425 518.356 265.019z" transform="translate(-687 -1630) translate(0 1347) translate(687 283) matrix(-1 0 0 1 650 38.72) translate(0 .279)"/>
                            <path fill="#FFF" stroke="#979797" d="M527.489 228.528L527.489 260.646 528.881 259.85 528.881 227.733zM557.19 190.025L557.19 155.304 543.116 163.191 543.116 197.912z" transform="translate(-687 -1630) translate(0 1347) translate(687 283) matrix(-1 0 0 1 650 38.72) translate(0 .279)"/>
                            <path fill="#FFF" stroke="#979797" d="M545.904 164.112L554.402 159.414 554.402 189.103 545.904 193.802zM571.056 251.024L571.056 203.919 547.582 216.792 547.788 264.293z" transform="translate(-687 -1630) translate(0 1347) translate(687 283) matrix(-1 0 0 1 650 38.72) translate(0 .279)"/>
                            <path fill="#FFF" stroke="#979797" d="M568.392 209.299L550.285 218.656 550.285 262.886 568.45 252.625zM435.611 260.387L435.611 225.665 421.537 233.552 421.537 268.274z" transform="translate(-687 -1630) translate(0 1347) translate(687 283) matrix(-1 0 0 1 650 38.72) translate(0 .279)"/>
                            <path fill="#FFF" stroke="#979797" d="M424.325 234.475L432.823 229.775 432.823 259.464 424.325 264.164zM591.871 269.764L571.131 258.147 560.691 278.946 568.202 283.191z" transform="translate(-687 -1630) translate(0 1347) translate(687 283) matrix(-1 0 0 1 650 38.72) translate(0 .279)"/>
                            <path fill="#FFF" stroke="#979797" d="M547.464 271.188l20.738 12.003v3.486l-20.738-12.004v-3.485zm0-7.02l7.511 4.246v3.483l-7.049-3.985 13.528 7.822v3.485l-13.99-8.089v-6.962zM568.202 286.677L591.871 273.247 591.871 269.764 568.202 283.191z" transform="translate(-687 -1630) translate(0 1347) translate(687 283) matrix(-1 0 0 1 650 38.72) translate(0 .279)"/>
                            <path fill="#FFF" stroke="#979797" d="M585.122 262.306L571.131 254.604 553.943 271.488 561.454 275.734z" transform="translate(-687 -1630) translate(0 1347) translate(687 283) matrix(-1 0 0 1 650 38.72) translate(0 .279)"/>
                            <path fill="#FFF" stroke="#979797" d="M561.454 279.219L585.122 265.791 585.122 262.306 561.454 275.734zM578.644 254.986L571.131 251.125 547.464 264.168 554.975 268.414z" transform="translate(-687 -1630) translate(0 1347) translate(687 283) matrix(-1 0 0 1 650 38.72) translate(0 .279)"/>
                            <path fill="#FFF" stroke="#979797" d="M554.975 271.897L578.644 258.469 578.644 254.986 554.975 268.414zM448.513 72.54L356.841 124.918 405.798 223.54 448.513 199.133zM305.19 169.942L305.19 172.508 309.401 174.913 309.401 171.851 355.494 131.671 401.586 224.521 401.586 227.585 405.796 229.991 405.796 223.54 356.841 124.918z" transform="translate(-687 -1630) translate(0 1347) translate(687 283) matrix(-1 0 0 1 650 38.72) translate(0 .279)"/>
                            <path fill="#FFF" stroke="#979797" d="M448.513 199.133L405.798 223.54 405.798 229.991 448.513 205.584zM361.321 252.641L361.321 217.33 385.437 231.109 385.437 266.42z" transform="translate(-687 -1630) translate(0 1347) translate(687 283) matrix(-1 0 0 1 650 38.72) translate(0 .279)"/>
                            <path fill="#FFF" stroke="#979797" d="M382.649 232.032L364.109 221.44 364.109 251.719 382.649 262.31z" transform="translate(-687 -1630) translate(0 1347) translate(687 283) matrix(-1 0 0 1 650 38.72) translate(0 .279)"/>
                            <path fill="#FFF" stroke="#979797" d="M373.516 225.821L373.516 257.937 372.123 257.142 372.123 225.026zM339.788 185.537L339.788 150.226 363.903 164.005 363.903 199.316z" transform="translate(-687 -1630) translate(0 1347) translate(687 283) matrix(-1 0 0 1 650 38.72) translate(0 .279)"/>
                            <path fill="#FFF" stroke="#979797" d="M361.115 164.927L342.576 154.336 342.576 184.614 361.115 195.206z" transform="translate(-687 -1630) translate(0 1347) translate(687 283) matrix(-1 0 0 1 650 38.72) translate(0 .279)"/>
                            <path fill="#FFF" stroke="#979797" d="M351.982 158.717L351.982 190.835 350.589 190.038 350.589 157.922zM320.585 229.816L320.585 194.507 344.7 208.286 344.7 243.597z" transform="translate(-687 -1630) translate(0 1347) translate(687 283) matrix(-1 0 0 1 650 38.72) translate(0 .279)"/>
                            <path fill="#FFF" stroke="#979797" d="M341.912 209.209L323.373 198.615 323.373 228.894 341.912 239.487z" transform="translate(-687 -1630) translate(0 1347) translate(687 283) matrix(-1 0 0 1 650 38.72) translate(0 .279)"/>
                            <path fill="#FFF" stroke="#979797" d="M332.779 202.996L332.779 235.114 331.386 234.319 331.386 202.201z" transform="translate(-687 -1630) translate(0 1347) translate(687 283) matrix(-1 0 0 1 650 38.72) translate(0 .279)"/>
                        </g>
                    </g>
                    <g fill="#DA4C39">
                        <path d="M10.122 19.2l1.419.484c2.747.936 2.836 4.795.073 5.817 0 .734-.554 1.198-1.161 1.198-.6 0-1.161-.457-1.161-1.198-1.187-.439-2.034-1.57-2.034-2.895 0-.634.52-1.148 1.161-1.148.642 0 1.162.514 1.162 1.148 0 .438.36.794.803.794h.138c.906 0 1.112-1.255.262-1.545l-1.419-.484c-2.747-.937-2.836-4.795-.073-5.818 0-.733.554-1.197 1.161-1.197.6 0 1.161.457 1.161 1.197 1.187.44 2.034 1.572 2.034 2.896 0 .634-.52 1.148-1.162 1.148-.64 0-1.16-.514-1.16-1.148 0-.438-.361-.794-.804-.794h-.138c-.906 0-1.112 1.255-.262 1.545zm9.912 1.327c0 5.224-4.298 9.473-9.581 9.473-5.283 0-9.58-4.25-9.58-9.473 0-5.223 4.297-9.472 9.58-9.472s9.58 4.25 9.58 9.472zm-2.323 0c0-3.957-3.256-7.176-7.258-7.176-4.002 0-7.258 3.22-7.258 7.176 0 3.957 3.256 7.177 7.258 7.177 4.002 0 7.258-3.22 7.258-7.177zm18 7.177h-.798V8.758c0-.634-.52-1.148-1.162-1.148-.641 0-1.16.514-1.16 1.148v18.946h-5.88V13.35c0-.634-.52-1.148-1.161-1.148-.642 0-1.162.514-1.162 1.148v14.353h-4.935c-.641 0-1.161.514-1.161 1.148 0 .634.52 1.148 1.161 1.148h16.258c.641 0 1.161-.514 1.161-1.148 0-.634-.52-1.148-1.16-1.148zM18.75 12.369l4.15-4.104 1.829 1.808c.453.448 1.188.448 1.642 0l6.22-6.15v.53c0 .634.519 1.148 1.16 1.148.642 0 1.162-.514 1.162-1.148 0-3.644.005-3.335-.013-3.463-.056-.392-.317-.74-.705-.9-.287-.117-.198-.087-3.782-.087-.642 0-1.162.515-1.162 1.149s.52 1.148 1.162 1.148h.535L25.55 7.637 23.722 5.83c-.454-.449-1.19-.449-1.643 0l-4.971 4.915c-.454.449-.454 1.176 0 1.624.453.449 1.188.448 1.642 0z" transform="translate(-687 -1630) translate(0 1347) translate(687 283) translate(300 19)"/>
                    </g>
                    <g fill="#DF4561">
                        <path d="M19.219 9.219H10.78V.78C10.781.35 10.431 0 10 0c-.431 0-.781.35-.781.781V9.22H.78C.35 9.219 0 9.569 0 10c0 .431.35.781.781.781H9.22v8.438c0 .431.35.781.781.781.431 0 .781-.35.781-.781V10.78h8.438c.431 0 .781-.35.781-.781 0-.431-.35-.781-.781-.781z" transform="translate(-687 -1630) translate(0 1347) translate(687 283) translate(480 24)"/>
                    </g>
                    <g fill="#DF4561">
                        <path d="M9.61 4.61H5.39V.39C5.39.176 5.217 0 5 0c-.216 0-.39.175-.39.39v4.22H.39C.176 4.61 0 4.783 0 5c0 .216.175.39.39.39h4.22v4.22c0 .215.174.39.39.39.216 0 .39-.175.39-.39V5.39h4.22c.215 0 .39-.174.39-.39 0-.216-.175-.39-.39-.39z" transform="translate(-687 -1630) translate(0 1347) translate(687 283) translate(464)"/>
                    </g>
                </g>
            </g>
        </g>
    </g>
</svg>
