<?xml version="1.0" encoding="UTF-8"?>
<svg height="185px" viewBox="0 0 1350 185" version="1.1" xmlns="http://www.w3.org/2000/svg" xmlns:xlink="http://www.w3.org/1999/xlink">
    <!-- Generator: Sketch 61.2 (89653) - https://sketch.com -->
    <title>path4186</title>
    <desc>Created with Sketch.</desc>
    <g id="Page-1" stroke="none" stroke-width="1" fill="none" fill-rule="evenodd">
        <g id="ADUCheck-Home" transform="translate(0.000000, -576.000000)" stroke="#DA4C39">
            <g id="Group-21">
                <g id="path4186" transform="translate(0.000000, 577.000000)">
                    <polygon fill="#FFFFFF" fill-rule="nonzero" points="414.846492 85.2003299 428.79669 85.2003299 428.79669 102.105332 436.962734 102.105332 436.962734 59.3359657 470.647428 59.3359657 470.647428 98.7243586 474.560294 98.7243586 474.560294 94.8361633 484.257233 94.8361633 484.257233 89.9337481 503.311362 89.9337481 503.311362 94.8361633 510.286498 94.8361633 510.286498 98.0481326 520.153593 98.0481326 520.153593 70.6623195 535.464928 70.6623195 535.464928 62.7170138 561.493954 62.7170138 561.493954 105.65537 564.215988 105.65537 564.215988 94.8361633 576.634977 94.8361633 576.634977 90.1028195 581.398447 90.1028195 581.398447 85.2003299 590.58525 85.2003299 590.58525 36.514492 608.448247 36.514492 608.448247 32.4572997 614.402594 32.4572997 614.402594 37.866944 623.079051 37.866944 623.079051 45.1360311 633.456087 45.1360311 633.456087 40.7407556 638.900081 40.7407556 638.900081 43.4455778 646.725948 43.4455778 646.725948 28.4001075 677.858928 28.4001075 677.858928 40.0645371 681.941979 40.0645371 681.941979 14.200091 684.834057 14.200091 684.834057 9.80482294 688.06652 9.80482294 688.06652 0 700.825953 0 700.825953 11.3262719 704.568769 11.3262719 704.568769 35.3312007 706.09983 36.8526497 706.09983 50.2072794 708.651746 50.2072794 708.651746 68.9717991 715.286715 68.9717991 715.286715 21.1310204 718.859338 21.1310204 718.859338 16.397684 726.514938 16.397684 726.514938 20.116726 737.573119 20.116726 737.573119 44.1217293 739.7848 44.1217293 739.7848 37.190718 767.685467 37.190718 767.685467 43.783661 770.917854 43.783661 770.917854 103.457695 774.660596 103.457695 774.660596 111.909999 777.892984 111.909999 777.892984 96.5266837 780.104665 96.5266837 780.104665 84.5241783 782.656581 84.5241783 782.656581 80.1288433 787.760265 80.1288433 787.760265 83.8479597 791.503006 83.8479597 791.503006 105.317294 796.60684 105.317294 796.60684 85.5384801 801.030127 85.5384801 801.030127 80.4669861 804.772868 80.4669861 804.772868 83.8479597 816.851831 83.8479597 816.851831 78.4383899 820.764765 78.4383899 820.764765 83.8479597 826.378876 83.8479597 826.378876 101.260102 837.26694 101.260102 837.26694 90.4408953 858.702905 90.4408953 858.702905 97.2029171 863.296235 97.2029171 863.296235 92.6385703 877.244245 92.6385703 877.244245 89.5956798 886.09082 89.5956798 886.09082 109.712324 889.833636 109.712324 889.833636 105.65537 893.746495 105.65537 893.746495 100.921952 915.012193 100.921952 915.012193 108.529033 920.62638 108.529033 920.62638 114.445742 926.410684 114.445742 926.410684 112.248067 939 112.248067 937.082734 183 406 183 406 105.993446 414.846492 105.993446"></polygon>
                </g>
            </g>
        </g>
    </g>
</svg>